STARTFONT 2.1
COMMENT
COMMENT Converted from OpenType font "LeagueGothic-Regular.ttf" by "otf2bdf 3.0".
COMMENT
FONT -FreeType-League Gothic-Medium-R-Normal--50-360-100-100-P-141-ISO10646-1
SIZE 36 100 100
FONTBOUNDINGBOX 40 62 -1 -13
STARTPROPERTIES 19
FOUNDRY "FreeType"
FAMILY_NAME "League Gothic"
WEIGHT_NAME "Medium"
SLANT "R"
SETWIDTH_NAME "Normal"
ADD_STYLE_NAME ""
PIXEL_SIZE 50
POINT_SIZE 360
RESOLUTION_X 100
RESOLUTION_Y 100
SPACING "P"
AVERAGE_WIDTH 141
CHARSET_REGISTRY "ISO10646"
CHARSET_ENCODING "1"
FONT_ASCENT 46
FONT_DESCENT 13
COPYRIGHT "Copyright (c) 2010, Caroline Hadilaksono &amp; Micah Rich <caroline@hadilaksono, micah@micahrich.com>, with Reserved Font Name: "League Gothic"."
_OTF_FONTFILE "LeagueGothic-Regular.ttf"
_OTF_PSNAME "LeagueGothic-Regular"
ENDPROPERTIES
CHARS 324
STARTCHAR 0020
ENCODING 32
SWIDTH 160 0
DWIDTH 8 0
BBX 0 0 0 0
BITMAP
ENDCHAR
STARTCHAR 0021
ENCODING 33
SWIDTH 180 0
DWIDTH 9 0
BBX 5 37 2 0
BITMAP
F8
F8
F8
F8
F8
F8
F8
F8
F8
F8
F8
F0
F0
F0
F0
F0
F0
70
70
70
70
70
70
70
70
70
70
00
00
00
00
F8
F8
F8
F8
F8
F8
ENDCHAR
STARTCHAR 0022
ENCODING 34
SWIDTH 260 0
DWIDTH 13 0
BBX 11 14 2 23
BITMAP
FBE0
FBE0
FBE0
FBE0
FBE0
FBE0
FBE0
FBE0
FBE0
FBE0
FBE0
FBE0
FBE0
FBE0
ENDCHAR
STARTCHAR 0023
ENCODING 35
SWIDTH 600 0
DWIDTH 30 0
BBX 28 37 1 0
BITMAP
00780F80
00F80F00
00F81F00
00F81F00
00F81F00
00F81F00
00F81F00
00F01F00
00F01E00
01F01E00
01F03E00
3FFFFFF0
3FFFFFF0
3FFFFFE0
3FFFFFE0
01E03C00
03E03C00
03E07C00
03E07C00
03E07C00
03E07C00
03E07C00
7FFFFFC0
7FFFFFC0
FFFFFFC0
FFFFFFC0
07C0F800
07C0F800
07C0F800
0780F800
0F80F000
0F81F000
0F81F000
0F81F000
0F81F000
0F81F000
0F01F000
ENDCHAR
STARTCHAR 0024
ENCODING 36
SWIDTH 340 0
DWIDTH 17 0
BBX 15 46 1 -5
BITMAP
0380
0380
0380
03C0
0FF0
1FF8
3FFC
3FFC
7E7C
7C3E
7C3E
7C00
7C00
7C00
7C00
3E00
3E00
3F00
1F80
0F80
0FC0
07E0
03E0
03F0
01F8
00F8
007C
007C
003E
003E
003E
003E
F83E
F83E
F83E
7C7E
7FFC
3FFC
3FF8
1FF0
0380
0380
0380
0380
0380
0380
ENDCHAR
STARTCHAR 0025
ENCODING 37
SWIDTH 480 0
DWIDTH 24 0
BBX 22 37 1 0
BITMAP
3C00E0
7E01E0
FF01C0
E701C0
E703C0
E70380
E70380
E70780
E70700
E70700
E70F00
E70E00
E71E00
E71E00
E71C00
FF3C00
7E3800
3C3800
0078F0
0071F8
00739C
00F39C
00E39C
01E39C
01E39C
01C39C
03C39C
03C39C
03839C
07839C
07039C
0F039C
0F039C
0E039C
1E03FC
1E01F8
1C00F0
ENDCHAR
STARTCHAR 0026
ENCODING 38
SWIDTH 420 0
DWIDTH 21 0
BBX 19 37 1 0
BITMAP
07E000
0FF000
1FF800
3FFC00
3FFC00
3C7C00
7C3E00
7C3E00
7C3E00
7C3E00
7C7C00
3C7C00
3EF800
3EF800
3FF000
3FF000
1FE000
1FC000
0FC000
1FC000
1FC200
3FE3E0
3FE3C0
7FF3C0
7DFFC0
F9FFC0
F8FFC0
F87F80
F87F80
F83F80
F83F80
FC3FE0
7EFFE0
7FFFE0
3FFBE0
1FF0E0
07C060
ENDCHAR
STARTCHAR 0027
ENCODING 39
SWIDTH 160 0
DWIDTH 8 0
BBX 5 14 2 23
BITMAP
F8
F8
F8
F8
F8
F8
F8
F8
F8
F8
F8
F8
F8
F8
ENDCHAR
STARTCHAR 0028
ENCODING 40
SWIDTH 280 0
DWIDTH 14 0
BBX 11 46 2 -7
BITMAP
0100
03C0
07E0
07C0
0F80
0F80
0F00
1F00
1F00
3E00
3E00
3E00
3C00
7C00
7C00
7800
7800
F800
F800
F800
F800
F800
F800
F800
F800
F800
F800
F800
F800
F800
7800
7C00
7C00
7C00
3C00
3E00
3E00
1E00
1F00
1F00
0F80
0F80
07C0
07C0
03C0
0380
ENDCHAR
STARTCHAR 0029
ENCODING 41
SWIDTH 260 0
DWIDTH 13 0
BBX 11 46 1 -7
BITMAP
3000
F800
F800
7C00
7C00
3E00
3E00
1E00
1F00
1F00
0F80
0F80
0F80
0780
07C0
07C0
07C0
03C0
03C0
03C0
03E0
03E0
03E0
03E0
03E0
03E0
03E0
03C0
03C0
07C0
07C0
07C0
0780
0F80
0F80
0F80
1F00
1F00
1F00
3E00
3E00
7C00
7C00
F800
F800
3000
ENDCHAR
STARTCHAR 002A
ENCODING 42
SWIDTH 340 0
DWIDTH 17 0
BBX 13 12 2 25
BITMAP
0F00
0700
0700
6730
FFF0
FFF8
7FF0
0F80
1FC0
3DE0
79E0
18C0
ENDCHAR
STARTCHAR 002B
ENCODING 43
SWIDTH 520 0
DWIDTH 26 0
BBX 22 21 2 7
BITMAP
007C00
007C00
007C00
007C00
007C00
007C00
007C00
007C00
FFFFFC
FFFFFC
FFFFFC
FFFFFC
007C00
007C00
007C00
007C00
007C00
007C00
007C00
007C00
007C00
ENDCHAR
STARTCHAR 002C
ENCODING 44
SWIDTH 140 0
DWIDTH 7 0
BBX 5 13 1 -7
BITMAP
F8
F8
F8
F8
F8
F8
70
70
70
60
E0
E0
C0
ENDCHAR
STARTCHAR 002D
ENCODING 45
SWIDTH 220 0
DWIDTH 11 0
BBX 7 4 2 11
BITMAP
FE
FE
FE
FE
ENDCHAR
STARTCHAR 002E
ENCODING 46
SWIDTH 140 0
DWIDTH 7 0
BBX 5 6 1 0
BITMAP
F8
F8
F8
F8
F8
F8
ENDCHAR
STARTCHAR 002F
ENCODING 47
SWIDTH 360 0
DWIDTH 18 0
BBX 17 41 0 -4
BITMAP
000780
000780
000780
000F00
000F00
000F00
001E00
001E00
001E00
003C00
003C00
003C00
007800
007800
007800
00F000
00F000
00F000
01E000
01E000
01E000
03C000
03C000
03C000
078000
078000
078000
0F8000
0F0000
0F0000
1F0000
1E0000
1E0000
3E0000
3C0000
3C0000
7C0000
780000
780000
780000
F00000
ENDCHAR
STARTCHAR 0030
ENCODING 48
SWIDTH 360 0
DWIDTH 18 0
BBX 14 37 2 0
BITMAP
0FC0
1FE0
3FF0
7FF8
7FF8
FCFC
F87C
F87C
F87C
F87C
F87C
F87C
F87C
F87C
F87C
F87C
F87C
F87C
F87C
F87C
F87C
F87C
F87C
F87C
F87C
F87C
F87C
F87C
F87C
F87C
F87C
FCFC
7FF8
7FF8
3FF0
3FE0
0FC0
ENDCHAR
STARTCHAR 0031
ENCODING 49
SWIDTH 220 0
DWIDTH 11 0
BBX 9 37 0 0
BITMAP
0380
0780
0F80
1F80
7F80
FF80
FF80
FF80
0F80
0F80
0F80
0F80
0F80
0F80
0F80
0F80
0F80
0F80
0F80
0F80
0F80
0F80
0F80
0F80
0F80
0F80
0F80
0F80
0F80
0F80
0F80
0F80
0F80
0F80
0F80
0F80
0F80
ENDCHAR
STARTCHAR 0032
ENCODING 50
SWIDTH 340 0
DWIDTH 17 0
BBX 14 37 1 0
BITMAP
0FC0
3FE0
3FF0
7FF8
7FF8
FC7C
F87C
F87C
F87C
F87C
F87C
F87C
007C
00FC
00F8
00F8
00F8
01F0
01F0
03F0
03E0
03E0
07C0
07C0
0FC0
0F80
1F80
1F00
3F00
7E00
7C00
FC00
FFFC
FFFC
FFFC
FFFC
FFFC
ENDCHAR
STARTCHAR 0033
ENCODING 51
SWIDTH 320 0
DWIDTH 16 0
BBX 14 37 1 0
BITMAP
0FC0
1FE0
3FF0
7FF8
7FF8
F87C
F87C
F87C
F87C
F87C
F87C
007C
007C
0078
00F8
07F8
0FF0
0FF0
0FF0
0FF8
01F8
00F8
007C
007C
007C
007C
F87C
F87C
F87C
F87C
F87C
7C78
7FF8
7FF8
3FF0
1FE0
0FC0
ENDCHAR
STARTCHAR 0034
ENCODING 52
SWIDTH 360 0
DWIDTH 18 0
BBX 16 37 1 0
BITMAP
00F8
01F8
01F8
01F8
03F8
03F8
03F8
07F8
07F8
07F8
0FF8
0FF8
0FF8
0FF8
1EF8
1EF8
1EF8
3CF8
3CF8
3CF8
7CF8
78F8
78F8
F8F8
F8F8
FFFF
FFFF
FFFF
FFFF
00F8
00F8
00F8
00F8
00F8
00F8
00F8
00F8
ENDCHAR
STARTCHAR 0035
ENCODING 53
SWIDTH 340 0
DWIDTH 17 0
BBX 14 37 2 0
BITMAP
FFF8
FFF8
FFF8
FFF8
FFF8
F800
F800
F800
F800
F800
F800
F800
FFE0
FFF0
FFF8
FFF8
FFFC
FC7C
F87C
007C
007C
007C
007C
007C
007C
007C
F87C
F87C
F87C
F87C
F87C
F8FC
7FF8
7FF8
3FF0
1FE0
0FC0
ENDCHAR
STARTCHAR 0036
ENCODING 54
SWIDTH 340 0
DWIDTH 17 0
BBX 14 37 2 0
BITMAP
0FC0
3FF0
7FF8
7FF8
FFFC
F87C
F87C
F87C
F87C
F87C
F800
F800
F800
F800
FFE0
FFF0
FFF8
FFF8
FCFC
F87C
F87C
F87C
F87C
F87C
F87C
F87C
F87C
F87C
F87C
F87C
F87C
F87C
7FF8
7FF8
3FF0
3FE0
0FC0
ENDCHAR
STARTCHAR 0037
ENCODING 55
SWIDTH 320 0
DWIDTH 16 0
BBX 14 37 1 0
BITMAP
FFFC
FFFC
FFFC
FFFC
FFFC
00FC
00FC
00FC
00F8
00F8
01F8
01F8
01F8
01F8
01F0
03F0
03F0
03F0
03F0
03F0
03E0
07E0
07E0
07E0
07E0
07C0
07C0
0FC0
0FC0
0FC0
0FC0
0F80
1F80
1F80
1F80
1F80
1F80
ENDCHAR
STARTCHAR 0038
ENCODING 56
SWIDTH 320 0
DWIDTH 16 0
BBX 14 37 1 0
BITMAP
0FC0
1FF0
3FF0
7FF8
7FFC
F87C
F87C
F87C
F87C
F87C
F87C
F87C
F87C
F87C
7CF8
7FF8
3FF0
3FF0
3FF0
7FF8
7CF8
F87C
F87C
F87C
F87C
F87C
F87C
F87C
F87C
F87C
F87C
FC7C
7FF8
7FF8
3FF0
1FE0
0FC0
ENDCHAR
STARTCHAR 0039
ENCODING 57
SWIDTH 340 0
DWIDTH 17 0
BBX 14 37 1 0
BITMAP
0FC0
3FF0
3FF0
7FF8
FFF8
F87C
F87C
F87C
F87C
F87C
F87C
F87C
F87C
F87C
F87C
F87C
F87C
FCFC
7FFC
7FFC
3FFC
1FFC
007C
007C
007C
007C
F87C
F87C
F87C
F87C
F87C
F87C
FFF8
7FF8
7FF0
3FF0
0FC0
ENDCHAR
STARTCHAR 003A
ENCODING 58
SWIDTH 160 0
DWIDTH 8 0
BBX 5 28 2 0
BITMAP
F8
F8
F8
F8
F8
F8
00
00
00
00
00
00
00
00
00
00
00
00
00
00
00
00
F8
F8
F8
F8
F8
F8
ENDCHAR
STARTCHAR 003B
ENCODING 59
SWIDTH 160 0
DWIDTH 8 0
BBX 5 35 2 -7
BITMAP
F8
F8
F8
F8
F8
F8
00
00
00
00
00
00
00
00
00
00
00
00
00
00
00
00
F8
F8
F8
F8
F8
F8
70
70
70
60
E0
E0
C0
ENDCHAR
STARTCHAR 003C
ENCODING 60
SWIDTH 520 0
DWIDTH 26 0
BBX 23 28 2 4
BITMAP
000002
00000E
00003E
0000FE
0001FE
0007FC
001FF0
007FC0
01FF00
07FC00
1FF000
7FC000
FF0000
FC0000
FC0000
FF0000
7FC000
1FF000
07FC00
01FF00
007FC0
001FF0
000FFC
0003FE
0000FE
00003E
00000E
000002
ENDCHAR
STARTCHAR 003D
ENCODING 61
SWIDTH 520 0
DWIDTH 26 0
BBX 22 14 2 12
BITMAP
FFFFFC
FFFFFC
FFFFFC
FFFFFC
000000
000000
000000
000000
000000
000000
FFFFFC
FFFFFC
FFFFFC
FFFFFC
ENDCHAR
STARTCHAR 003E
ENCODING 62
SWIDTH 520 0
DWIDTH 26 0
BBX 23 26 2 5
BITMAP
C00000
F00000
FC0000
FF0000
FFC000
3FF000
0FFC00
03FF00
00FFC0
003FE0
000FF8
0003FE
0000FE
0000FE
0003FE
000FFC
003FF0
00FFC0
03FF00
07FC00
1FF000
7FC000
FF0000
FC0000
F00000
C00000
ENDCHAR
STARTCHAR 003F
ENCODING 63
SWIDTH 320 0
DWIDTH 16 0
BBX 14 37 1 0
BITMAP
07C0
1FF0
3FF8
7FF8
FEFC
F87C
787C
107C
00FC
00F8
01F8
01F0
03F0
03E0
07E0
07C0
07C0
0780
0F80
0F80
0F80
0F80
0F80
0F80
0F80
0F80
0F80
0000
0000
0000
0000
0F80
0F80
0F80
0F80
0F80
0F80
ENDCHAR
STARTCHAR 0040
ENCODING 64
SWIDTH 440 0
DWIDTH 22 0
BBX 19 37 2 0
BITMAP
03F800
0FFE00
3FFF00
3FFF80
7F7FC0
FC0FC0
F807C0
F877E0
F8FFE0
F9FFE0
F9E3E0
F9E3E0
F9E3E0
F9E3E0
F9E3E0
F9E3E0
F9E3E0
F9E3E0
F9E3E0
F9E3E0
F9E3E0
F9E3E0
F9E3E0
F9E3E0
F9FFE0
F8FFE0
F87BE0
F80000
F80000
F80000
F80000
FC0400
7FBF00
7FFF80
3FFF00
0FFE00
03F800
ENDCHAR
STARTCHAR 0041
ENCODING 65
SWIDTH 380 0
DWIDTH 19 0
BBX 17 37 1 0
BITMAP
07F000
07F000
07F000
07F000
0FF000
0FF000
0FF800
0FF800
0FF800
0FF800
1FF800
1F7800
1F7C00
1F7C00
1F7C00
1F7C00
1E7C00
3E7C00
3E7C00
3E3E00
3E3E00
3E3E00
3E3E00
3E3E00
7FFE00
7FFE00
7FFF00
7FFF00
7FFF00
7FFF00
FC1F00
FC1F00
F81F80
F81F80
F80F80
F80F80
F80F80
ENDCHAR
STARTCHAR 0042
ENCODING 66
SWIDTH 400 0
DWIDTH 20 0
BBX 16 37 2 0
BITMAP
FF80
FFF0
FFF8
FFFC
FFFC
FCFC
FC7E
FC3E
FC3E
FC3E
FC3E
FC3E
FC3E
FC3E
FC7C
FFFC
FFF8
FFF0
FFFC
FFFC
FCFE
FC7F
FC3F
FC3F
FC3F
FC3F
FC3F
FC3F
FC3F
FC3F
FC7F
FC7F
FFFE
FFFE
FFFC
FFF8
FFE0
ENDCHAR
STARTCHAR 0043
ENCODING 67
SWIDTH 340 0
DWIDTH 17 0
BBX 14 37 2 0
BITMAP
0FC0
1FE0
3FF0
7FF8
7FF8
FC7C
F87C
F87C
F87C
F87C
F87C
F87C
F87C
F800
F800
F800
F800
F800
F800
F800
F800
F800
F800
F800
F87C
F87C
F87C
F87C
F87C
F87C
F87C
FC7C
7FF8
7FF8
3FF0
3FE0
0FC0
ENDCHAR
STARTCHAR 0044
ENCODING 68
SWIDTH 380 0
DWIDTH 19 0
BBX 15 37 2 0
BITMAP
FF80
FFE0
FFF8
FFF8
FFFC
F8FC
F8FC
F87C
F87E
F87E
F87E
F87E
F87E
F87E
F87E
F87E
F87E
F87E
F87E
F87E
F87E
F87E
F87E
F87E
F87E
F87E
F87E
F87E
F87E
F87C
F8FC
F8FC
FFFC
FFF8
FFF8
FFE0
FF80
ENDCHAR
STARTCHAR 0045
ENCODING 69
SWIDTH 320 0
DWIDTH 16 0
BBX 13 37 2 0
BITMAP
FFF8
FFF8
FFF8
FFF8
FFF8
FFF8
F800
F800
F800
F800
F800
F800
F800
F800
F800
FFE0
FFE0
FFE0
FFE0
FFE0
FFE0
F800
F800
F800
F800
F800
F800
F800
F800
F800
F800
FFF8
FFF8
FFF8
FFF8
FFF8
FFF8
ENDCHAR
STARTCHAR 0046
ENCODING 70
SWIDTH 320 0
DWIDTH 16 0
BBX 13 37 2 0
BITMAP
FFF8
FFF8
FFF8
FFF8
FFF8
FFF8
F800
F800
F800
F800
F800
F800
F800
F800
F800
FFE0
FFE0
FFE0
FFE0
FFE0
FFE0
F800
F800
F800
F800
F800
F800
F800
F800
F800
F800
F800
F800
F800
F800
F800
F800
ENDCHAR
STARTCHAR 0047
ENCODING 71
SWIDTH 360 0
DWIDTH 18 0
BBX 14 37 2 0
BITMAP
0FC0
1FE0
3FF0
7FF8
7FF8
FCFC
F87C
F87C
F87C
F87C
F87C
F87C
F87C
F800
F800
F800
F800
F800
F9FC
F9FC
F9FC
F9FC
F87C
F87C
F87C
F87C
F87C
F87C
F87C
F87C
F87C
F87C
FFFC
7FFC
7FFC
3FDC
0F9C
ENDCHAR
STARTCHAR 0048
ENCODING 72
SWIDTH 380 0
DWIDTH 19 0
BBX 15 37 2 0
BITMAP
F83E
F83E
F83E
F83E
F83E
F83E
F83E
F83E
F83E
F83E
F83E
F83E
F83E
F83E
F83E
FFFE
FFFE
FFFE
FFFE
FFFE
FFFE
F83E
F83E
F83E
F83E
F83E
F83E
F83E
F83E
F83E
F83E
F83E
F83E
F83E
F83E
F83E
F83E
ENDCHAR
STARTCHAR 0049
ENCODING 73
SWIDTH 180 0
DWIDTH 9 0
BBX 5 37 2 0
BITMAP
F8
F8
F8
F8
F8
F8
F8
F8
F8
F8
F8
F8
F8
F8
F8
F8
F8
F8
F8
F8
F8
F8
F8
F8
F8
F8
F8
F8
F8
F8
F8
F8
F8
F8
F8
F8
F8
ENDCHAR
STARTCHAR 004A
ENCODING 74
SWIDTH 220 0
DWIDTH 11 0
BBX 8 37 1 0
BITMAP
1F
1F
1F
1F
1F
1F
1F
1F
1F
1F
1F
1F
1F
1F
1F
1F
1F
1F
1F
1F
1F
1F
1F
1F
1F
1F
1F
1F
1F
1F
1F
7F
FF
FE
FE
FC
F0
ENDCHAR
STARTCHAR 004B
ENCODING 75
SWIDTH 360 0
DWIDTH 18 0
BBX 16 37 2 0
BITMAP
F83E
F87E
F87C
F87C
F8F8
F8F8
F8F8
F9F0
F9F0
FBE0
FBE0
FBE0
FFC0
FFE0
FFE0
FFE0
FFE0
FFE0
FFF0
FFF0
FDF0
FDF0
FDF8
F9F8
F8F8
F8F8
F8F8
F8FC
F87C
F87C
F87C
F87E
F83E
F83E
F83E
F83F
F83F
ENDCHAR
STARTCHAR 004C
ENCODING 76
SWIDTH 300 0
DWIDTH 15 0
BBX 13 37 2 0
BITMAP
F800
F800
F800
F800
F800
F800
F800
F800
F800
F800
F800
F800
F800
F800
F800
F800
F800
F800
F800
F800
F800
F800
F800
F800
F800
F800
F800
F800
F800
F800
F800
F800
F800
FFF8
FFF8
FFF8
FFF8
ENDCHAR
STARTCHAR 004D
ENCODING 77
SWIDTH 480 0
DWIDTH 24 0
BBX 20 37 2 0
BITMAP
FC03F0
FC07F0
FE07F0
FE07F0
FE07F0
FE07F0
FF0FF0
FF0FF0
FF0FF0
FF0FF0
FF0FF0
FF9FF0
FF9FF0
FF9FF0
FF9FF0
FF9FF0
FFFDF0
FFFDF0
FBFDF0
FBFDF0
FBFDF0
FBFDF0
FBF9F0
FBF9F0
F9F9F0
F9F9F0
F9F9F0
F9F9F0
F9F1F0
F9F1F0
F8F1F0
F8F1F0
F8F1F0
F8F1F0
F8F1F0
F8E1F0
F861F0
ENDCHAR
STARTCHAR 004E
ENCODING 78
SWIDTH 400 0
DWIDTH 20 0
BBX 16 37 2 0
BITMAP
F81F
F81F
F81F
F81F
FC1F
FC1F
FC1F
FE1F
FE1F
FE1F
FF1F
FF1F
FF1F
FF9F
FF9F
FF9F
FFDF
FFDF
FFDF
FBFF
FBFF
FBFF
F9FF
F9FF
F9FF
F8FF
F8FF
F8FF
F87F
F87F
F87F
F83F
F83F
F83F
F83F
F81F
F81F
ENDCHAR
STARTCHAR 004F
ENCODING 79
SWIDTH 360 0
DWIDTH 18 0
BBX 14 37 2 0
BITMAP
0FC0
1FE0
3FF0
7FF8
7FF8
FCFC
F87C
F87C
F87C
F87C
F87C
F87C
F87C
F87C
F87C
F87C
F87C
F87C
F87C
F87C
F87C
F87C
F87C
F87C
F87C
F87C
F87C
F87C
F87C
F87C
F87C
FCFC
7FF8
7FF8
3FF0
3FE0
0FC0
ENDCHAR
STARTCHAR 0050
ENCODING 80
SWIDTH 360 0
DWIDTH 18 0
BBX 15 37 2 0
BITMAP
FF80
FFE0
FFF0
FFF8
FFFC
FFFC
F8FC
F87E
F83E
F83E
F83E
F83E
F83E
F83E
F87E
F8FC
FFFC
FFF8
FFF8
FFF0
FFE0
FF00
F800
F800
F800
F800
F800
F800
F800
F800
F800
F800
F800
F800
F800
F800
F800
ENDCHAR
STARTCHAR 0051
ENCODING 81
SWIDTH 360 0
DWIDTH 18 0
BBX 16 40 2 -3
BITMAP
0FC0
1FE0
3FF0
7FF8
7FF8
FCFC
F87C
F87C
F87C
F87C
F87C
F87C
F87C
F87C
F87C
F87C
F87C
F87C
F87C
F87C
F87C
F87C
F87C
F87C
F87C
F87C
F87C
F87C
F87C
F87C
F87C
FCFC
7FF8
7FF8
3FFC
1FFF
0FFF
001F
000F
0001
ENDCHAR
STARTCHAR 0052
ENCODING 82
SWIDTH 360 0
DWIDTH 18 0
BBX 15 37 2 0
BITMAP
FF80
FFE0
FFF8
FFF8
FFFC
F8FC
F87E
F83E
F83E
F83E
F83E
F83E
F83E
F83E
F87E
F87C
FBFC
FFFC
FFF8
FFF0
FFF8
F9F8
F9F8
F8F8
F8F8
F8F8
F8FC
F8FC
F87C
F87C
F87C
F87C
F83E
F83E
F83E
F83E
F83E
ENDCHAR
STARTCHAR 0053
ENCODING 83
SWIDTH 340 0
DWIDTH 17 0
BBX 15 37 1 0
BITMAP
07E0
0FF0
1FF8
3FFC
3FFC
7C7E
7C3E
7C3E
7C3E
7C38
7E00
7E00
3F00
3F00
1F80
1FC0
0FC0
0FE0
07E0
07F0
03F8
01F8
01FC
00FC
007C
007E
383E
F83E
F83E
F83E
F83E
FC7E
7EFC
7FFC
3FF8
1FF0
0FE0
ENDCHAR
STARTCHAR 0054
ENCODING 84
SWIDTH 360 0
DWIDTH 18 0
BBX 16 37 1 0
BITMAP
FFFF
FFFF
FFFF
FFFF
FFFF
FFFF
07C0
07C0
07C0
07C0
07C0
07C0
07C0
07C0
07C0
07C0
07C0
07C0
07C0
07C0
07C0
07C0
07C0
07C0
07C0
07C0
07C0
07C0
07C0
07C0
07C0
07C0
07C0
07C0
07C0
07C0
07C0
ENDCHAR
STARTCHAR 0055
ENCODING 85
SWIDTH 360 0
DWIDTH 18 0
BBX 14 37 2 0
BITMAP
F87C
F87C
F87C
F87C
F87C
F87C
F87C
F87C
F87C
F87C
F87C
F87C
F87C
F87C
F87C
F87C
F87C
F87C
F87C
F87C
F87C
F87C
F87C
F87C
F87C
F87C
F87C
F87C
F87C
F87C
F87C
FCFC
7FF8
7FF8
3FF0
1FE0
0FC0
ENDCHAR
STARTCHAR 0056
ENCODING 86
SWIDTH 360 0
DWIDTH 18 0
BBX 16 37 1 0
BITMAP
F81F
F81F
F83F
F83F
F83E
F83E
FC3E
7C3E
7C3E
7C3E
7C7C
7C7C
7C7C
7C7C
3E7C
3E7C
3E7C
3EF8
3EF8
3EF8
1EF8
1FF8
1FF8
1FF8
1FF0
1FF0
1FF0
0FF0
0FF0
0FF0
0FE0
0FE0
0FE0
07E0
07E0
07E0
07E0
ENDCHAR
STARTCHAR 0057
ENCODING 87
SWIDTH 500 0
DWIDTH 25 0
BBX 24 37 1 0
BITMAP
F83C1F
F83C1F
F87C3E
F87C3E
F87C3E
F87C3E
F87C3E
787C3E
7C7E3E
7C7E3C
7CFE3C
7CFE7C
7CFE7C
7CFE7C
3CFE7C
3CFE7C
3CFF7C
3EFF78
3FEF78
3FEF78
3FEFF8
3FEFF8
1FEFF8
1FE7F8
1FE7F0
1FC7F0
1FC7F0
1FC7F0
1FC7F0
0FC7F0
0FC3F0
0FC3F0
0F83E0
0F83E0
0F83E0
0F83E0
0F83E0
ENDCHAR
STARTCHAR 0058
ENCODING 88
SWIDTH 360 0
DWIDTH 18 0
BBX 16 37 1 0
BITMAP
F81F
F81F
FC3F
7C3E
7C3E
7E7E
3E7C
3E7C
3E7C
1FF8
1FF8
1FF8
0FF0
0FF0
0FF0
07E0
07E0
07E0
07E0
07E0
0FF0
0FF0
0FF0
0FF0
1FF8
1FF8
1FF8
3E7C
3E7C
3E7C
7E7E
7C3E
7C3E
FC3F
F81F
F81F
F81F
ENDCHAR
STARTCHAR 0059
ENCODING 89
SWIDTH 340 0
DWIDTH 17 0
BBX 15 37 1 0
BITMAP
F83E
F83E
F83E
FC7E
7C7C
7C7C
7C7C
7C7C
3EF8
3EF8
3EF8
3EF8
1FF0
1FF0
1FF0
0FF0
0FE0
0FE0
0FE0
07C0
07C0
07C0
07C0
07C0
07C0
07C0
07C0
07C0
07C0
07C0
07C0
07C0
07C0
07C0
07C0
07C0
07C0
ENDCHAR
STARTCHAR 005A
ENCODING 90
SWIDTH 320 0
DWIDTH 16 0
BBX 14 37 1 0
BITMAP
7FFC
7FFC
7FFC
7FFC
7FFC
00FC
00FC
01F8
01F8
01F8
03F0
03F0
03F0
03E0
07E0
07E0
07C0
0FC0
0FC0
0F80
1F80
1F80
1F00
3F00
3F00
3F00
3E00
7E00
7E00
7C00
FC00
FC00
FFFC
FFFC
FFFC
FFFC
FFFC
ENDCHAR
STARTCHAR 005B
ENCODING 91
SWIDTH 260 0
DWIDTH 13 0
BBX 10 41 2 -4
BITMAP
FFC0
FFC0
FFC0
FFC0
F800
F800
F800
F800
F800
F800
F800
F800
F800
F800
F800
F800
F800
F800
F800
F800
F800
F800
F800
F800
F800
F800
F800
F800
F800
F800
F800
F800
F800
F800
F800
F800
F800
FFC0
FFC0
FFC0
FFC0
ENDCHAR
STARTCHAR 005C
ENCODING 92
SWIDTH 380 0
DWIDTH 19 0
BBX 19 46 0 -4
BITMAP
F00000
780000
780000
780000
3C0000
3C0000
3C0000
1E0000
1E0000
1E0000
0F0000
0F0000
0F0000
078000
078000
078000
03C000
03C000
03C000
01E000
01E000
01E000
01E000
00F000
00F000
00F000
007800
007800
007800
003C00
003C00
003C00
001E00
001E00
001E00
000F00
000F00
000F00
000780
000780
000780
0003C0
0003C0
0003C0
0001E0
0001E0
ENDCHAR
STARTCHAR 005D
ENCODING 93
SWIDTH 260 0
DWIDTH 13 0
BBX 10 41 1 -4
BITMAP
FFC0
FFC0
FFC0
FFC0
07C0
07C0
07C0
07C0
07C0
07C0
07C0
07C0
07C0
07C0
07C0
07C0
07C0
07C0
07C0
07C0
07C0
07C0
07C0
07C0
07C0
07C0
07C0
07C0
07C0
07C0
07C0
07C0
07C0
07C0
07C0
07C0
07C0
FFC0
FFC0
FFC0
FFC0
ENDCHAR
STARTCHAR 005E
ENCODING 94
SWIDTH 540 0
DWIDTH 27 0
BBX 23 17 2 20
BITMAP
00FE00
00FE00
01FF00
01FF00
03EF80
03EF80
07C7C0
0F83C0
0F83E0
1F01F0
1F01F0
3E00F8
3E00F8
7C007C
7C007C
F8003E
F0003E
ENDCHAR
STARTCHAR 005F
ENCODING 95
SWIDTH 600 0
DWIDTH 30 0
BBX 26 4 2 -8
BITMAP
FFFFFFC0
FFFFFFC0
FFFFFFC0
FFFFFFC0
ENDCHAR
STARTCHAR 0060
ENCODING 96
SWIDTH 500 0
DWIDTH 25 0
BBX 7 4 8 32
BITMAP
F8
7C
3C
1E
ENDCHAR
STARTCHAR 0061
ENCODING 97
SWIDTH 300 0
DWIDTH 15 0
BBX 13 28 1 0
BITMAP
0780
1FE0
3FF0
3FF0
7FF0
7CF8
7CF8
7CF8
7CF8
00F8
00F8
03F8
0FF8
1FF8
3FF8
7EF8
7CF8
78F8
F8F8
F8F8
F8F8
F8F8
F8F8
FFF8
FFF8
7FF8
7EF8
3CF8
ENDCHAR
STARTCHAR 0062
ENCODING 98
SWIDTH 320 0
DWIDTH 16 0
BBX 13 37 2 0
BITMAP
F800
F800
F800
F800
F800
F800
F800
F800
F800
F9C0
FFF0
FFF0
FFF0
FFF8
F8F8
F8F8
F8F8
F8F8
F8F8
F8F8
F8F8
F8F8
F8F8
F8F8
F8F8
F8F8
F8F8
F8F8
F8F8
F8F8
F8F8
F8F8
FDF8
FFF0
FFF0
FFF0
F9C0
ENDCHAR
STARTCHAR 0063
ENCODING 99
SWIDTH 320 0
DWIDTH 16 0
BBX 13 28 2 0
BITMAP
0F80
3FE0
7FF0
7FF0
FFF0
F8F8
F8F8
F8F8
F8F8
F8F8
F800
F800
F800
F800
F800
F800
F800
F800
F8F8
F8F8
F8F8
F8F8
F8F8
FFF0
7FF0
7FF0
3FE0
0F80
ENDCHAR
STARTCHAR 0064
ENCODING 100
SWIDTH 340 0
DWIDTH 17 0
BBX 13 37 2 0
BITMAP
00F8
00F8
00F8
00F8
00F8
00F8
00F8
00F8
00F8
3CF8
7EF8
7FF8
FFF8
FFF8
F8F8
F8F8
F8F8
F8F8
F8F8
F8F8
F8F8
F8F8
F8F8
F8F8
F8F8
F8F8
F8F8
F8F8
F8F8
F8F8
F8F8
F8F8
FDF8
FFF8
7FF8
7FF8
3CF8
ENDCHAR
STARTCHAR 0065
ENCODING 101
SWIDTH 340 0
DWIDTH 17 0
BBX 13 28 2 0
BITMAP
0F80
3FE0
7FF0
7FF0
FDF8
F8F8
F8F8
F8F8
F8F8
F8F8
F8F8
FFF8
FFF8
FFF8
FFF8
F800
F800
F800
F8F8
F8F8
F8F8
F8F8
F8F8
FDF8
7FF0
7FF0
3FE0
0F80
ENDCHAR
STARTCHAR 0066
ENCODING 102
SWIDTH 240 0
DWIDTH 12 0
BBX 11 37 1 0
BITMAP
03E0
07E0
0FE0
0FE0
1FA0
1F00
1F00
1F00
1F00
FFC0
FFC0
FFC0
FFC0
1F00
1F00
1F00
1F00
1F00
1F00
1F00
1F00
1F00
1F00
1F00
1F00
1F00
1F00
1F00
1F00
1F00
1F00
1F00
1F00
1F00
1F00
1F00
1F00
ENDCHAR
STARTCHAR 0067
ENCODING 103
SWIDTH 380 0
DWIDTH 19 0
BBX 17 37 1 -9
BITMAP
07C180
0FF380
1FFF80
3FFF80
3EFF00
7C7C00
7C7C00
7C7C00
7C7C00
7C7C00
7C7C00
7C7C00
7C7C00
7C7C00
7C7C00
3E7C00
3FFC00
3FF800
1FF000
0FE000
1E0000
3C0000
7E0000
7FE000
7FFC00
7FFE00
3FFF00
1FFF80
3CFF80
780F80
F80F80
F80F80
FEFF80
FFFF00
7FFE00
3FFC00
0FF000
ENDCHAR
STARTCHAR 0068
ENCODING 104
SWIDTH 340 0
DWIDTH 17 0
BBX 13 37 2 0
BITMAP
F800
F800
F800
F800
F800
F800
F800
F800
F800
F9C0
FBF0
FFF0
FFF0
FFF8
F8F8
F8F8
F8F8
F8F8
F8F8
F8F8
F8F8
F8F8
F8F8
F8F8
F8F8
F8F8
F8F8
F8F8
F8F8
F8F8
F8F8
F8F8
F8F8
F8F8
F8F8
F8F8
F8F8
ENDCHAR
STARTCHAR 0069
ENCODING 105
SWIDTH 180 0
DWIDTH 9 0
BBX 5 37 2 0
BITMAP
F8
F8
F8
F8
F8
00
00
00
00
F8
F8
F8
F8
F8
F8
F8
F8
F8
F8
F8
F8
F8
F8
F8
F8
F8
F8
F8
F8
F8
F8
F8
F8
F8
F8
F8
F8
ENDCHAR
STARTCHAR 006A
ENCODING 106
SWIDTH 180 0
DWIDTH 9 0
BBX 8 46 -1 -9
BITMAP
1F
1F
1F
1F
1F
00
00
00
00
1F
1F
1F
1F
1F
1F
1F
1F
1F
1F
1F
1F
1F
1F
1F
1F
1F
1F
1F
1F
1F
1F
1F
1F
1F
1F
1F
1F
1F
1F
1F
1F
BE
FE
FE
FC
F8
ENDCHAR
STARTCHAR 006B
ENCODING 107
SWIDTH 300 0
DWIDTH 15 0
BBX 13 37 2 0
BITMAP
F800
F800
F800
F800
F800
F800
F800
F800
F800
F9F0
F9F0
F9E0
FBE0
FBC0
FBC0
FFC0
FF80
FF80
FF80
FF80
FF80
FF80
FFC0
FFC0
FFC0
FBC0
FBE0
FBE0
FBE0
F9E0
F9F0
F9F0
F9F0
F8F0
F8F8
F8F8
F8F8
ENDCHAR
STARTCHAR 006C
ENCODING 108
SWIDTH 180 0
DWIDTH 9 0
BBX 5 37 2 0
BITMAP
F8
F8
F8
F8
F8
F8
F8
F8
F8
F8
F8
F8
F8
F8
F8
F8
F8
F8
F8
F8
F8
F8
F8
F8
F8
F8
F8
F8
F8
F8
F8
F8
F8
F8
F8
F8
F8
ENDCHAR
STARTCHAR 006D
ENCODING 109
SWIDTH 500 0
DWIDTH 25 0
BBX 21 28 2 0
BITMAP
F9E0E0
FBF3F0
FFF7F0
FFFFF8
FFFFF8
F8F8F8
F8F8F8
F8F8F8
F8F8F8
F8F8F8
F8F8F8
F8F8F8
F8F8F8
F8F8F8
F8F8F8
F8F8F8
F8F8F8
F8F8F8
F8F8F8
F8F8F8
F8F8F8
F8F8F8
F8F8F8
F8F8F8
F8F8F8
F8F8F8
F8F8F8
F8F8F8
ENDCHAR
STARTCHAR 006E
ENCODING 110
SWIDTH 340 0
DWIDTH 17 0
BBX 13 28 2 0
BITMAP
F9C0
FBF0
FFF0
FFF0
FFF8
F8F8
F8F8
F8F8
F8F8
F8F8
F8F8
F8F8
F8F8
F8F8
F8F8
F8F8
F8F8
F8F8
F8F8
F8F8
F8F8
F8F8
F8F8
F8F8
F8F8
F8F8
F8F8
F8F8
ENDCHAR
STARTCHAR 006F
ENCODING 111
SWIDTH 320 0
DWIDTH 16 0
BBX 13 28 2 0
BITMAP
0F80
3FC0
7FE0
7FF0
FFF0
F8F8
F8F8
F8F8
F8F8
F8F8
F8F8
F8F8
F8F8
F8F8
F8F8
F8F8
F8F8
F8F8
F8F8
F8F8
F8F8
F8F8
F8F8
FFF0
7FF0
7FE0
3FE0
0F80
ENDCHAR
STARTCHAR 0070
ENCODING 112
SWIDTH 320 0
DWIDTH 16 0
BBX 13 37 2 -9
BITMAP
F9C0
FFF0
FFF0
FFF0
FDF8
F8F8
F8F8
F8F8
F8F8
F8F8
F8F8
F8F8
F8F8
F8F8
F8F8
F8F8
F8F8
F8F8
F8F8
F8F8
F8F8
F8F8
F8F8
FFF8
FFF0
FFF0
FFF0
F9C0
F800
F800
F800
F800
F800
F800
F800
F800
F800
ENDCHAR
STARTCHAR 0071
ENCODING 113
SWIDTH 340 0
DWIDTH 17 0
BBX 13 37 2 -9
BITMAP
3CF8
7FF8
7FF8
FFF8
FDF8
F8F8
F8F8
F8F8
F8F8
F8F8
F8F8
F8F8
F8F8
F8F8
F8F8
F8F8
F8F8
F8F8
F8F8
F8F8
F8F8
F8F8
F8F8
FFF8
FFF8
7FF8
7EF8
3CF8
00F8
00F8
00F8
00F8
00F8
00F8
00F8
00F8
00F8
ENDCHAR
STARTCHAR 0072
ENCODING 114
SWIDTH 260 0
DWIDTH 13 0
BBX 10 28 2 0
BITMAP
F9C0
FBC0
FFC0
FFC0
FFC0
FC00
F800
F800
F800
F800
F800
F800
F800
F800
F800
F800
F800
F800
F800
F800
F800
F800
F800
F800
F800
F800
F800
F800
ENDCHAR
STARTCHAR 0073
ENCODING 115
SWIDTH 320 0
DWIDTH 16 0
BBX 14 28 1 0
BITMAP
07C0
1FF0
3FF8
3FF8
7FF8
7C7C
7C7C
7C7C
7C00
7C00
3E00
3F00
1F80
0FC0
07E0
03F0
01F0
00F8
00F8
007C
F87C
F87C
F878
7FF8
7FF8
3FF0
1FE0
0FC0
ENDCHAR
STARTCHAR 0074
ENCODING 116
SWIDTH 260 0
DWIDTH 13 0
BBX 11 35 1 0
BITMAP
1F00
1F00
1F00
1F00
1F00
1F00
1F00
FFE0
FFE0
FFE0
FFE0
1F00
1F00
1F00
1F00
1F00
1F00
1F00
1F00
1F00
1F00
1F00
1F00
1F00
1F00
1F00
1F00
1F00
1F00
1F00
1FE0
0FE0
0FE0
07E0
03E0
ENDCHAR
STARTCHAR 0075
ENCODING 117
SWIDTH 340 0
DWIDTH 17 0
BBX 13 28 2 0
BITMAP
F8F8
F8F8
F8F8
F8F8
F8F8
F8F8
F8F8
F8F8
F8F8
F8F8
F8F8
F8F8
F8F8
F8F8
F8F8
F8F8
F8F8
F8F8
F8F8
F8F8
F8F8
F8F8
F8F8
FFF8
FFF8
7FF8
7EF8
3CF8
ENDCHAR
STARTCHAR 0076
ENCODING 118
SWIDTH 300 0
DWIDTH 15 0
BBX 14 28 0 0
BITMAP
F87C
787C
7C7C
7C7C
7C7C
7C78
7C78
3C78
3C78
3CF8
3CF8
3CF0
3EF0
1EF0
1EF0
1EF0
1EF0
1EF0
1FE0
1FE0
0FE0
0FE0
0FE0
0FE0
0FC0
0FC0
07C0
07C0
ENDCHAR
STARTCHAR 0077
ENCODING 119
SWIDTH 440 0
DWIDTH 22 0
BBX 21 28 1 0
BITMAP
F0F0F8
F0F0F0
F0F0F0
F0F0F0
F8F1F0
F8F1F0
F8F1F0
79F9F0
79F9E0
79F9E0
79F9E0
79F9E0
79F9E0
7DF9E0
3FFFE0
3FDFC0
3F9FC0
3F9FC0
3F9FC0
3F9FC0
3F9FC0
1F9F80
1F8F80
1F0F80
1F0F80
1F0F80
1F0F80
1F0F80
ENDCHAR
STARTCHAR 0078
ENCODING 120
SWIDTH 300 0
DWIDTH 15 0
BBX 14 28 1 0
BITMAP
F8F8
F8F8
78F8
7CF0
7DF0
3DF0
3DE0
3FE0
3FE0
1FC0
1FC0
1FC0
0F80
0F80
0F80
1FC0
1FC0
1FC0
3FE0
3FE0
3DE0
7DF0
7DF0
7DF0
78F8
F8F8
F8F8
F07C
ENDCHAR
STARTCHAR 0079
ENCODING 121
SWIDTH 320 0
DWIDTH 16 0
BBX 14 37 1 -9
BITMAP
F87C
F87C
F87C
F87C
7878
7878
7CF8
7CF8
7CF8
7CF8
3CF0
3CF0
3CF0
3CF0
3FF0
3FF0
1FE0
1FE0
1FE0
1FE0
1FE0
1FE0
0FC0
0FC0
0FC0
0FC0
0FC0
0FC0
0F80
0F80
0F80
1F80
7F00
FF00
FE00
FC00
F800
ENDCHAR
STARTCHAR 007A
ENCODING 122
SWIDTH 280 0
DWIDTH 14 0
BBX 12 28 1 0
BITMAP
7FF0
7FF0
7FF0
7FF0
01F0
03E0
03E0
03E0
07C0
07C0
07C0
0F80
0F80
0F80
1F00
1F00
1F00
3E00
3E00
3E00
7C00
7C00
7C00
F800
FFF0
FFF0
FFF0
FFF0
ENDCHAR
STARTCHAR 007B
ENCODING 123
SWIDTH 320 0
DWIDTH 16 0
BBX 14 49 1 -12
BITMAP
00FC
03FC
07FC
0FFC
0FF8
1F80
1F00
1F00
1F00
1F00
1F00
1F00
1F00
1F00
1F00
1F00
1F00
1F00
1F00
1F00
1F00
3E00
FE00
FC00
F800
FC00
FE00
3E00
3E00
1F00
1F00
1F00
1F00
1F00
1F00
1F00
1F00
1F00
1F00
1F00
1F00
1F00
1F00
1F80
0FF8
0FFC
07FC
03FC
00FC
ENDCHAR
STARTCHAR 007C
ENCODING 124
SWIDTH 180 0
DWIDTH 9 0
BBX 5 55 2 -13
BITMAP
F8
F8
F8
F8
F8
F8
F8
F8
F8
F8
F8
F8
F8
F8
F8
F8
F8
F8
F8
F8
F8
F8
F8
F8
F8
F8
F8
F8
F8
F8
F8
F8
F8
F8
F8
F8
F8
F8
F8
F8
F8
F8
F8
F8
F8
F8
F8
F8
F8
F8
F8
F8
F8
F8
F8
ENDCHAR
STARTCHAR 007D
ENCODING 125
SWIDTH 340 0
DWIDTH 17 0
BBX 14 49 1 -12
BITMAP
FC00
FF00
FF80
FFC0
7FC0
07C0
07C0
03E0
03E0
03E0
03E0
03E0
03E0
03E0
03E0
03E0
03E0
03E0
03E0
03E0
03E0
03F0
01FC
01FC
007C
00FC
01FC
03F0
03E0
03E0
03E0
03E0
03E0
03E0
03E0
03E0
03E0
03E0
03E0
03E0
03E0
03E0
03E0
07C0
7FC0
FFC0
FF80
FF00
FC00
ENDCHAR
STARTCHAR 007E
ENCODING 126
SWIDTH 620 0
DWIDTH 31 0
BBX 27 9 3 32
BITMAP
07E00180
0FF801E0
1FFE03C0
3FFF07C0
7FFFFF80
781FFF80
F00FFF00
F003FE00
2000F800
ENDCHAR
STARTCHAR 0093
ENCODING 147
SWIDTH 300 0
DWIDTH 15 0
BBX 13 13 1 24
BITMAP
1838
3838
3830
7070
7070
70F0
F0E0
F8F8
F8F8
F8F8
F8F8
F8F8
F8F8
ENDCHAR
STARTCHAR 0094
ENCODING 148
SWIDTH 300 0
DWIDTH 15 0
BBX 13 13 1 24
BITMAP
F8F8
F8F8
F8F8
F8F8
F8F8
F8F8
3878
7870
7070
7070
60E0
E0E0
E0C0
ENDCHAR
STARTCHAR 00A0
ENCODING 160
SWIDTH 160 0
DWIDTH 8 0
BBX 0 0 0 0
BITMAP
ENDCHAR
STARTCHAR 00A1
ENCODING 161
SWIDTH 180 0
DWIDTH 9 0
BBX 5 37 2 -9
BITMAP
F8
F8
F8
F8
F8
F8
00
00
00
00
70
70
70
70
70
70
70
70
70
F0
F0
F0
F0
F0
F0
F0
F0
F8
F8
F8
F8
F8
F8
F8
F8
F8
F8
ENDCHAR
STARTCHAR 00A2
ENCODING 162
SWIDTH 320 0
DWIDTH 16 0
BBX 13 41 2 -3
BITMAP
0700
0700
0700
0700
0700
0700
1FC0
3FE0
7FF0
7FF0
F8F0
F8F8
F8F8
F8F8
F8F8
F800
F800
F800
F800
F800
F800
F800
F800
F8F8
F8F8
F8F8
F8F8
F8F8
F8F0
FFF0
7FF0
7FE0
1FC0
0700
0700
0700
0700
0700
0700
0700
0700
ENDCHAR
STARTCHAR 00A3
ENCODING 163
SWIDTH 420 0
DWIDTH 21 0
BBX 20 37 0 0
BITMAP
01F800
03FE00
07FF00
0FFF80
0FFF80
1F0F80
1F0780
1F07C0
1F07C0
1F0000
1F0000
1F0000
0F0000
0F0000
0F8000
0F8000
078000
7FFE00
7FFE00
7FFE00
03E000
03E000
03E000
03E000
03E000
03E000
03E000
03E1F0
03C1F0
07C1F0
1FE3E0
3FFFE0
3FFFE0
7FFFE0
FFFFC0
783F80
100F00
ENDCHAR
STARTCHAR 00A5
ENCODING 165
SWIDTH 360 0
DWIDTH 18 0
BBX 16 37 1 0
BITMAP
FC1F
FC1F
7C1F
7E3E
7E3E
7E3E
3E3E
3E3C
3F7C
3F7C
1F7C
1F78
1F78
0FF8
0FF8
0FF8
0FF0
07F0
07F0
7FFE
7FFE
7FFE
03E0
03E0
03E0
7FFE
7FFE
7FFE
03E0
03E0
03E0
03E0
03E0
03E0
03E0
03E0
03E0
ENDCHAR
STARTCHAR 00A8
ENCODING 168
SWIDTH 500 0
DWIDTH 25 0
BBX 12 4 7 32
BITMAP
F9F0
F9F0
F9F0
F9F0
ENDCHAR
STARTCHAR 00A9
ENCODING 169
SWIDTH 800 0
DWIDTH 40 0
BBX 38 38 1 0
BITMAP
0001FE0000
000FFFC000
003FFFF000
00FE01FC00
01F0003E00
03C0000F00
0780000780
0F000003C0
1E00F801E0
1C01FC00E0
3803FE0070
3803CE0070
7003CE0038
7003CE0038
7003CE0038
E003CE001C
E003C0001C
E003C0001C
E003C0001C
E003C0001C
E003C0001C
E003C0001C
E003CE001C
F003CE0038
7003CE0038
7003CE0038
3803CE0070
3803FC0070
1C01FC00E0
1E00F801E0
0F000003C0
0780000780
03C0000F00
01F0003E00
00FE01FC00
003FFFF000
000FFFC000
0001FE0000
ENDCHAR
STARTCHAR 00AE
ENCODING 174
SWIDTH 800 0
DWIDTH 40 0
BBX 38 38 1 0
BITMAP
0001FE0000
000FFFC000
003FFFF000
00FE01FC00
01F0003E00
03C0000F00
0780000780
0F000003C0
1E03F801E0
1C03FE00E0
3803FE0070
3803CF0070
7003C70038
7003C70038
7003C70038
E003C7001C
E003C7001C
E003CF001C
E003FE001C
E003FE001C
E003FC001C
E003DC001C
E003DE001C
F003CE0038
7003CE0038
7003CE0038
3803CF0070
3803C70070
1C03C700E0
1E03C701E0
0F000003C0
0780000780
03C0000F00
01F0003E00
00FE01FC00
003FFFF000
000FFFC000
0001FE0000
ENDCHAR
STARTCHAR 00AF
ENCODING 175
SWIDTH 520 0
DWIDTH 26 0
BBX 10 4 8 32
BITMAP
FFC0
FFC0
FFC0
FFC0
ENDCHAR
STARTCHAR 00B4
ENCODING 180
SWIDTH 500 0
DWIDTH 25 0
BBX 7 4 10 32
BITMAP
3E
7C
78
F0
ENDCHAR
STARTCHAR 00B7
ENCODING 183
SWIDTH 100 0
DWIDTH 5 0
BBX 5 6 0 16
BITMAP
F8
F8
F8
F8
F8
F8
ENDCHAR
STARTCHAR 00B8
ENCODING 184
SWIDTH 500 0
DWIDTH 25 0
BBX 5 7 10 -10
BITMAP
F8
F8
F8
30
70
70
60
ENDCHAR
STARTCHAR 00BF
ENCODING 191
SWIDTH 320 0
DWIDTH 16 0
BBX 14 37 1 -9
BITMAP
07C0
07C0
07C0
07C0
07C0
07C0
0000
0000
0000
0000
07C0
07C0
07C0
07C0
07C0
07C0
07C0
07C0
07C0
0780
0F80
0F80
1F80
1F00
3F00
3E00
7E00
7C00
FC00
F820
F878
F8FC
FDF8
7FF8
7FF0
3FE0
0F80
ENDCHAR
STARTCHAR 00C0
ENCODING 192
SWIDTH 380 0
DWIDTH 19 0
BBX 17 45 1 0
BITMAP
1F0000
0F8000
078000
03C000
000000
000000
000000
000000
07F000
07F000
07F000
07F000
0FF000
0FF000
0FF800
0FF800
0FF800
0FF800
1FF800
1F7800
1F7C00
1F7C00
1F7C00
1F7C00
1E7C00
3E7C00
3E7C00
3E3E00
3E3E00
3E3E00
3E3E00
3E3E00
7FFE00
7FFE00
7FFF00
7FFF00
7FFF00
7FFF00
FC1F00
FC1F00
F81F80
F81F80
F80F80
F80F80
F80F80
ENDCHAR
STARTCHAR 00C1
ENCODING 193
SWIDTH 380 0
DWIDTH 19 0
BBX 17 45 1 0
BITMAP
00FC00
00F800
01F000
01E000
000000
000000
000000
000000
07F000
07F000
07F000
07F000
0FF000
0FF000
0FF800
0FF800
0FF800
0FF800
1FF800
1F7800
1F7C00
1F7C00
1F7C00
1F7C00
1E7C00
3E7C00
3E7C00
3E3E00
3E3E00
3E3E00
3E3E00
3E3E00
7FFE00
7FFE00
7FFF00
7FFF00
7FFF00
7FFF00
FC1F00
FC1F00
F81F80
F81F80
F80F80
F80F80
F80F80
ENDCHAR
STARTCHAR 00C2
ENCODING 194
SWIDTH 380 0
DWIDTH 19 0
BBX 17 45 1 0
BITMAP
07E000
07F000
0FF800
1F7C00
000000
000000
000000
000000
07F000
07F000
07F000
07F000
0FF000
0FF000
0FF800
0FF800
0FF800
0FF800
1FF800
1F7800
1F7C00
1F7C00
1F7C00
1F7C00
1E7C00
3E7C00
3E7C00
3E3E00
3E3E00
3E3E00
3E3E00
3E3E00
7FFE00
7FFE00
7FFF00
7FFF00
7FFF00
7FFF00
FC1F00
FC1F00
F81F80
F81F80
F80F80
F80F80
F80F80
ENDCHAR
STARTCHAR 00C3
ENCODING 195
SWIDTH 400 0
DWIDTH 20 0
BBX 18 45 1 0
BITMAP
078000
0FFC00
0FFC00
0FFC00
0DFC00
000000
000000
000000
07F800
07F800
07F800
07F800
07F800
07F800
07F800
0FFC00
0FFC00
0FFC00
0FFC00
0FFC00
0FFC00
1FBE00
1F3E00
1F3E00
1F3E00
1F3E00
1F3E00
1F3E00
3F3F00
3E1F00
3E1F00
3E1F00
3FFF00
3FFF00
7FFF80
7FFF80
7FFF80
7FFF80
7C0F80
7C0F80
7C0F80
FC0FC0
FC0FC0
F807C0
F807C0
ENDCHAR
STARTCHAR 00C4
ENCODING 196
SWIDTH 360 0
DWIDTH 18 0
BBX 18 45 0 0
BITMAP
1F3E00
1F3E00
1F3E00
1F3E00
000000
000000
000000
000000
07F000
07F000
07F000
07F800
07F800
07F800
07F800
0FF800
0FF800
0FFC00
0FFC00
0FFC00
0F7C00
0F7C00
1F7C00
1F3C00
1F3E00
1F3E00
1F3E00
1F3E00
3E3E00
3E3E00
3E3E00
3E1F00
3FFF00
3FFF00
3FFF00
7FFF00
7FFF00
7FFF80
7C1F80
7C0F80
7C0F80
7C0F80
FC0F80
F80F80
F80FC0
ENDCHAR
STARTCHAR 00C5
ENCODING 197
SWIDTH 380 0
DWIDTH 19 0
BBX 18 47 1 0
BITMAP
01E000
03F000
061800
061800
061800
03F000
01E000
000000
000000
000000
07F000
07F800
07F800
07F800
07F800
07F800
0FF800
0FFC00
0FFC00
0FFC00
0FFC00
0FFC00
0FFC00
1F7C00
1F3E00
1F3E00
1F3E00
1F3E00
1F3E00
3F3E00
3E3E00
3E1F00
3E1F00
3E1F00
3FFF00
3FFF00
7FFF00
7FFF80
7FFF80
7FFF80
7C0F80
7C0F80
7C0F80
FC0F80
F80FC0
F80FC0
F807C0
ENDCHAR
STARTCHAR 00C6
ENCODING 198
SWIDTH 540 0
DWIDTH 27 0
BBX 26 37 0 0
BITMAP
003FFFC0
003FFFC0
007FFFC0
007FFFC0
007FFFC0
007FFFC0
00FFC000
00FFC000
00FFC000
00FFC000
01FFC000
01FFC000
01F7C000
03F7C000
03F7C000
03F7FF00
03E7FF00
07E7FF00
07E7FF00
07C7FF00
0FC7FF00
0FC7C000
0FC7C000
0F87C000
1FFFC000
1FFFC000
1FFFC000
1FFFC000
3FFFC000
3FFFC000
3E07C000
7E07FFC0
7E07FFC0
7C07FFC0
7C07FFC0
FC07FFC0
F807FFC0
ENDCHAR
STARTCHAR 00C7
ENCODING 199
SWIDTH 340 0
DWIDTH 17 0
BBX 14 46 2 -9
BITMAP
0FC0
1FE0
3FF0
7FF8
7FF8
FC7C
F87C
F87C
F87C
F87C
F87C
F87C
F87C
F800
F800
F800
F800
F800
F800
F800
F800
F800
F800
F800
F87C
F87C
F87C
F87C
F87C
F87C
F87C
FC7C
7FF8
7FF8
3FF0
3FE0
0FC0
0000
0000
0F80
0F80
0F80
0380
0380
0700
0700
ENDCHAR
STARTCHAR 00C8
ENCODING 200
SWIDTH 320 0
DWIDTH 16 0
BBX 13 45 2 0
BITMAP
7C00
3E00
1E00
0F00
0000
0000
0000
0000
FFF8
FFF8
FFF8
FFF8
FFF8
FFF8
F800
F800
F800
F800
F800
F800
F800
F800
F800
FFE0
FFE0
FFE0
FFE0
FFE0
FFE0
F800
F800
F800
F800
F800
F800
F800
F800
F800
F800
FFF8
FFF8
FFF8
FFF8
FFF8
FFF8
ENDCHAR
STARTCHAR 00C9
ENCODING 201
SWIDTH 320 0
DWIDTH 16 0
BBX 13 45 2 0
BITMAP
03E0
07C0
0780
0F00
0000
0000
0000
0000
FFF8
FFF8
FFF8
FFF8
FFF8
FFF8
F800
F800
F800
F800
F800
F800
F800
F800
F800
FFE0
FFE0
FFE0
FFE0
FFE0
FFE0
F800
F800
F800
F800
F800
F800
F800
F800
F800
F800
FFF8
FFF8
FFF8
FFF8
FFF8
FFF8
ENDCHAR
STARTCHAR 00CA
ENCODING 202
SWIDTH 320 0
DWIDTH 16 0
BBX 13 45 2 0
BITMAP
1F80
3FC0
7FE0
79F0
0000
0000
0000
0000
FFF8
FFF8
FFF8
FFF8
FFF8
FFF8
F800
F800
F800
F800
F800
F800
F800
F800
F800
FFE0
FFE0
FFE0
FFE0
FFE0
FFE0
F800
F800
F800
F800
F800
F800
F800
F800
F800
F800
FFF8
FFF8
FFF8
FFF8
FFF8
FFF8
ENDCHAR
STARTCHAR 00CB
ENCODING 203
SWIDTH 320 0
DWIDTH 16 0
BBX 13 45 2 0
BITMAP
F9F0
F9F0
F9F0
F9F0
0000
0000
0000
0000
FFF8
FFF8
FFF8
FFF8
FFF8
FFF8
F800
F800
F800
F800
F800
F800
F800
F800
F800
FFC0
FFC0
FFC0
FFC0
FFC0
FFC0
F800
F800
F800
F800
F800
F800
F800
F800
F800
F800
FFF8
FFF8
FFF8
FFF8
FFF8
FFF8
ENDCHAR
STARTCHAR 00CC
ENCODING 204
SWIDTH 180 0
DWIDTH 9 0
BBX 7 45 0 0
BITMAP
F8
78
3C
3C
00
00
00
00
3E
3E
3E
3E
3E
3E
3E
3E
3E
3E
3E
3E
3E
3E
3E
3E
3E
3E
3E
3E
3E
3E
3E
3E
3E
3E
3E
3E
3E
3E
3E
3E
3E
3E
3E
3E
3E
ENDCHAR
STARTCHAR 00CD
ENCODING 205
SWIDTH 180 0
DWIDTH 9 0
BBX 7 45 2 0
BITMAP
3E
3C
78
78
00
00
00
00
F8
F8
F8
F8
F8
F8
F8
F8
F8
F8
F8
F8
F8
F8
F8
F8
F8
F8
F8
F8
F8
F8
F8
F8
F8
F8
F8
F8
F8
F8
F8
F8
F8
F8
F8
F8
F8
ENDCHAR
STARTCHAR 00CE
ENCODING 206
SWIDTH 180 0
DWIDTH 9 0
BBX 11 45 -1 0
BITMAP
1F00
3F80
7FC0
FBE0
0000
0000
0000
0000
1F00
1F00
1F00
1F00
1F00
1F00
1F00
1F00
1F00
1F00
1F00
1F00
1F00
1F00
1F00
1F00
1F00
1F00
1F00
1F00
1F00
1F00
1F00
1F00
1F00
1F00
1F00
1F00
1F00
1F00
1F00
1F00
1F00
1F00
1F00
1F00
1F00
ENDCHAR
STARTCHAR 00CF
ENCODING 207
SWIDTH 180 0
DWIDTH 9 0
BBX 12 45 -1 0
BITMAP
F9F0
F9F0
F9F0
F9F0
0000
0000
0000
0000
1F00
1F00
1F00
1F00
1F00
1F00
1F00
1F00
1F00
1F00
1F00
1F00
1F00
1F00
1F00
1F00
1F00
1F00
1F00
1F00
1F00
1F00
1F00
1F00
1F00
1F00
1F00
1F00
1F00
1F00
1F00
1F00
1F00
1F00
1F00
1F00
1F00
ENDCHAR
STARTCHAR 00D0
ENCODING 208
SWIDTH 400 0
DWIDTH 20 0
BBX 17 37 1 0
BITMAP
3FE000
3FF800
3FFE00
3FFE00
3FFF00
3E3F00
3E3F00
3E1F00
3E1F80
3E1F80
3E1F80
3E1F80
3E1F80
3E1F80
3E1F80
FF9F80
FF9F80
FF9F80
FF9F80
FF9F80
FF9F80
3E1F80
3E1F80
3E1F80
3E1F80
3E1F80
3E1F80
3E1F80
3E1F80
3E1F00
3E3F00
3E3F00
3FFF00
3FFE00
3FFE00
3FF800
3FE000
ENDCHAR
STARTCHAR 00D1
ENCODING 209
SWIDTH 400 0
DWIDTH 20 0
BBX 16 45 2 0
BITMAP
0F00
1FF8
1FF8
1FF8
1BF8
0000
0000
0000
F81F
F81F
F81F
FC1F
FC1F
FC1F
FC1F
FE1F
FE1F
FE1F
FF1F
FF1F
FF1F
FF9F
FF9F
FF9F
FFDF
FFDF
FFDF
FBFF
FBFF
FBFF
F9FF
F9FF
F9FF
F8FF
F8FF
F8FF
F87F
F87F
F87F
F83F
F83F
F83F
F81F
F81F
F81F
ENDCHAR
STARTCHAR 00D2
ENCODING 210
SWIDTH 360 0
DWIDTH 18 0
BBX 14 45 2 0
BITMAP
3E00
1F00
0F00
0F80
0000
0000
0000
0000
0FC0
1FE0
3FF0
7FF8
7FF8
FCFC
F87C
F87C
F87C
F87C
F87C
F87C
F87C
F87C
F87C
F87C
F87C
F87C
F87C
F87C
F87C
F87C
F87C
F87C
F87C
F87C
F87C
F87C
F87C
F87C
F87C
FCFC
7FF8
7FF8
3FF0
3FE0
0FC0
ENDCHAR
STARTCHAR 00D3
ENCODING 211
SWIDTH 360 0
DWIDTH 18 0
BBX 14 45 2 0
BITMAP
01F0
01E0
03C0
07C0
0000
0000
0000
0000
0FC0
1FE0
3FF0
7FF8
7FF8
FCFC
F87C
F87C
F87C
F87C
F87C
F87C
F87C
F87C
F87C
F87C
F87C
F87C
F87C
F87C
F87C
F87C
F87C
F87C
F87C
F87C
F87C
F87C
F87C
F87C
F87C
FCFC
7FF8
7FF8
3FF0
3FE0
0FC0
ENDCHAR
STARTCHAR 00D4
ENCODING 212
SWIDTH 360 0
DWIDTH 18 0
BBX 14 45 2 0
BITMAP
0FE0
1FE0
3FF0
7CF8
0000
0000
0000
0000
0FC0
1FE0
3FF0
7FF8
7FF8
FCFC
F87C
F87C
F87C
F87C
F87C
F87C
F87C
F87C
F87C
F87C
F87C
F87C
F87C
F87C
F87C
F87C
F87C
F87C
F87C
F87C
F87C
F87C
F87C
F87C
F87C
FCFC
7FF8
7FF8
3FF0
3FE0
0FC0
ENDCHAR
STARTCHAR 00D5
ENCODING 213
SWIDTH 360 0
DWIDTH 18 0
BBX 14 45 2 0
BITMAP
3FB0
3FF0
3FF0
3FF0
01E0
0000
0000
0000
0FC0
1FE0
3FF0
7FF8
7FF8
FCFC
F87C
F87C
F87C
F87C
F87C
F87C
F87C
F87C
F87C
F87C
F87C
F87C
F87C
F87C
F87C
F87C
F87C
F87C
F87C
F87C
F87C
F87C
F87C
F87C
F87C
FCFC
7FF8
7FF8
3FF0
3FE0
0FC0
ENDCHAR
STARTCHAR 00D6
ENCODING 214
SWIDTH 360 0
DWIDTH 18 0
BBX 14 45 2 0
BITMAP
7CF8
7CF8
7CF8
7CF8
0000
0000
0000
0000
0FC0
1FE0
3FF0
7FF8
7FF8
FCFC
F87C
F87C
F87C
F87C
F87C
F87C
F87C
F87C
F87C
F87C
F87C
F87C
F87C
F87C
F87C
F87C
F87C
F87C
F87C
F87C
F87C
F87C
F87C
F87C
F87C
FCFC
7FF8
7FF8
3FF0
3FE0
0FC0
ENDCHAR
STARTCHAR 00D8
ENCODING 216
SWIDTH 360 0
DWIDTH 18 0
BBX 14 37 2 0
BITMAP
0FDC
1FFC
3FF8
7FF8
7FF8
FCFC
F87C
F87C
F87C
F8FC
F8FC
F8FC
F9FC
F9FC
F9FC
FBFC
FBFC
FBFC
FFFC
FF7C
FF7C
FF7C
FE7C
FE7C
FE7C
FC7C
FC7C
FC7C
F87C
F87C
F87C
FCFC
FFF8
7FF8
FFF0
FFE0
EFC0
ENDCHAR
STARTCHAR 00D9
ENCODING 217
SWIDTH 360 0
DWIDTH 18 0
BBX 14 45 2 0
BITMAP
3E00
1F00
0F00
0780
0000
0000
0000
0000
F87C
F87C
F87C
F87C
F87C
F87C
F87C
F87C
F87C
F87C
F87C
F87C
F87C
F87C
F87C
F87C
F87C
F87C
F87C
F87C
F87C
F87C
F87C
F87C
F87C
F87C
F87C
F87C
F87C
F87C
F87C
FCFC
7FF8
7FF8
3FF0
1FE0
0FC0
ENDCHAR
STARTCHAR 00DA
ENCODING 218
SWIDTH 360 0
DWIDTH 18 0
BBX 14 45 2 0
BITMAP
01F8
01F0
03E0
07C0
0000
0000
0000
0000
F87C
F87C
F87C
F87C
F87C
F87C
F87C
F87C
F87C
F87C
F87C
F87C
F87C
F87C
F87C
F87C
F87C
F87C
F87C
F87C
F87C
F87C
F87C
F87C
F87C
F87C
F87C
F87C
F87C
F87C
F87C
FCFC
7FF8
7FF8
3FF0
1FE0
0FC0
ENDCHAR
STARTCHAR 00DB
ENCODING 219
SWIDTH 360 0
DWIDTH 18 0
BBX 14 45 2 0
BITMAP
0FE0
1FE0
3FF0
7CF8
0000
0000
0000
0000
F87C
F87C
F87C
F87C
F87C
F87C
F87C
F87C
F87C
F87C
F87C
F87C
F87C
F87C
F87C
F87C
F87C
F87C
F87C
F87C
F87C
F87C
F87C
F87C
F87C
F87C
F87C
F87C
F87C
F87C
F87C
FCFC
7FF8
7FF8
3FF0
1FE0
0FC0
ENDCHAR
STARTCHAR 00DC
ENCODING 220
SWIDTH 360 0
DWIDTH 18 0
BBX 14 45 2 0
BITMAP
7CF8
7CF8
7CF8
7CF8
0000
0000
0000
0000
F87C
F87C
F87C
F87C
F87C
F87C
F87C
F87C
F87C
F87C
F87C
F87C
F87C
F87C
F87C
F87C
F87C
F87C
F87C
F87C
F87C
F87C
F87C
F87C
F87C
F87C
F87C
F87C
F87C
F87C
F87C
FCFC
7FF8
7FF8
3FF0
1FE0
0FC0
ENDCHAR
STARTCHAR 00DD
ENCODING 221
SWIDTH 340 0
DWIDTH 17 0
BBX 15 45 1 0
BITMAP
01F0
01E0
03E0
03C0
0000
0000
0000
0000
F83E
F83E
F83E
FC7E
7C7C
7C7C
7C7C
7C7C
3EF8
3EF8
3EF8
3EF8
1FF0
1FF0
1FF0
0FF0
0FE0
0FE0
0FE0
07C0
07C0
07C0
07C0
07C0
07C0
07C0
07C0
07C0
07C0
07C0
07C0
07C0
07C0
07C0
07C0
07C0
07C0
ENDCHAR
STARTCHAR 00DE
ENCODING 222
SWIDTH 360 0
DWIDTH 18 0
BBX 15 37 2 0
BITMAP
F800
F800
F800
F800
F800
F800
FF80
FFE0
FFF0
FFF8
FFFC
FFFC
F8FC
F87E
F83E
F83E
F83E
F83E
F83E
F83E
F87E
F8FC
FFFC
FFF8
FFF8
FFF0
FFE0
FF00
F800
F800
F800
F800
F800
F800
F800
F800
F800
ENDCHAR
STARTCHAR 00DF
ENCODING 223
SWIDTH 360 0
DWIDTH 18 0
BBX 15 37 2 0
BITMAP
0FC0
3FF0
7FF8
7FF8
FDF8
F87C
F87C
F87C
F8F8
F9F0
F9F0
F9F8
F8F8
F87C
F87C
F83C
F83C
F83C
F83E
F83E
F83E
F83E
F83E
F83E
F83E
F83E
F83E
F83C
F83C
F83C
F87C
F87C
F9FC
F9F8
F9F8
F9F0
F9C0
ENDCHAR
STARTCHAR 00E0
ENCODING 224
SWIDTH 320 0
DWIDTH 16 0
BBX 13 37 1 0
BITMAP
3E00
1E00
0F00
0F00
0000
0000
0000
0000
0000
0780
1FE0
3FF0
3FF0
7FF0
7CF8
7CF8
7CF8
7CF8
00F8
00F8
03F8
0FF8
1FF8
3FF8
7EF8
7CF8
78F8
F8F8
F8F8
F8F8
F8F8
F8F8
FFF8
FFF8
7FF8
7EF8
3CF8
ENDCHAR
STARTCHAR 00E1
ENCODING 225
SWIDTH 320 0
DWIDTH 16 0
BBX 13 37 1 0
BITMAP
01F0
01E0
03C0
0380
0000
0000
0000
0000
0000
0780
1FE0
3FF0
3FF0
7FF0
7CF8
7CF8
7CF8
7CF8
00F8
00F8
03F8
0FF8
1FF8
3FF8
7EF8
7CF8
78F8
F8F8
F8F8
F8F8
F8F8
F8F8
FFF8
FFF8
7FF8
7EF8
3CF8
ENDCHAR
STARTCHAR 00E2
ENCODING 226
SWIDTH 320 0
DWIDTH 16 0
BBX 13 37 1 0
BITMAP
0FC0
1FC0
1FE0
3CF0
0000
0000
0000
0000
0000
0780
1FE0
3FF0
3FF0
7FF0
7CF8
7CF8
7CF8
7CF8
00F8
00F8
03F8
0FF8
1FF8
3FF8
7EF8
7CF8
78F8
F8F8
F8F8
F8F8
F8F8
F8F8
FFF8
FFF8
7FF8
7EF8
3CF8
ENDCHAR
STARTCHAR 00E3
ENCODING 227
SWIDTH 320 0
DWIDTH 16 0
BBX 13 37 1 0
BITMAP
3FB0
3FF0
3FF0
3FF0
37F0
0000
0000
0000
0000
0780
1FE0
3FF0
3FF0
7FF0
7CF8
7CF8
7CF8
7CF8
00F8
00F8
03F8
0FF8
1FF8
3FF8
7EF8
7CF8
78F8
F8F8
F8F8
F8F8
F8F8
F8F8
FFF8
FFF8
7FF8
7EF8
3CF8
ENDCHAR
STARTCHAR 00E4
ENCODING 228
SWIDTH 320 0
DWIDTH 16 0
BBX 13 37 1 0
BITMAP
7CF8
7CF8
7CF8
7CF8
0000
0000
0000
0000
0000
07C0
1FE0
1FF0
3FF0
7FF8
7CF8
7CF8
7CF8
7CF8
00F8
00F8
03F8
0FF8
1FF8
3FF8
7EF8
7CF8
78F8
F8F8
F8F8
F8F8
F8F8
F8F8
FFF8
FFF8
7FF8
7FF8
3CF8
ENDCHAR
STARTCHAR 00E5
ENCODING 229
SWIDTH 320 0
DWIDTH 16 0
BBX 13 39 1 0
BITMAP
0780
0FC0
1860
1860
1860
0FC0
0780
0000
0000
0000
0000
0780
1FE0
3FF0
3FF0
7FF0
7CF8
7CF8
7CF8
7CF8
00F8
00F8
03F8
0FF8
1FF8
3FF8
7EF8
7CF8
78F8
F8F8
F8F8
F8F8
F8F8
F8F8
FFF8
FFF8
7FF8
7EF8
3CF8
ENDCHAR
STARTCHAR 00E6
ENCODING 230
SWIDTH 480 0
DWIDTH 24 0
BBX 22 28 1 0
BITMAP
07CFC0
1FFFE0
3FFFF0
3FFFF8
7FFFF8
7CF87C
7CF87C
7CF87C
00F87C
00F87C
01F87C
07FFFC
0FFFFC
1FFFFC
3FFFFC
7EF800
7CF800
F8F800
F8F87C
F8F87C
F8F87C
F8F87C
F8F87C
FFFFF8
FFFFF8
7FBFF0
7F1FE0
3C0FC0
ENDCHAR
STARTCHAR 00E7
ENCODING 231
SWIDTH 320 0
DWIDTH 16 0
BBX 13 37 2 -9
BITMAP
0F80
3FE0
7FF0
7FF0
FFF0
F8F8
F8F8
F8F8
F8F8
F8F8
F800
F800
F800
F800
F800
F800
F800
F800
F8F8
F8F8
F8F8
F8F8
F8F8
FFF0
7FF0
7FF0
3FE0
0F80
0000
0000
0F80
0F80
0F80
0700
0700
0700
0600
ENDCHAR
STARTCHAR 00E8
ENCODING 232
SWIDTH 340 0
DWIDTH 17 0
BBX 13 37 2 0
BITMAP
7C00
3E00
1F00
0F00
0000
0000
0000
0000
0000
0F80
3FE0
7FF0
7FF0
FDF8
F8F8
F8F8
F8F8
F8F8
F8F8
F8F8
FFF8
FFF8
FFF8
FFF8
F800
F800
F800
F8F8
F8F8
F8F8
F8F8
F8F8
FDF8
7FF0
7FF0
3FE0
0F80
ENDCHAR
STARTCHAR 00E9
ENCODING 233
SWIDTH 340 0
DWIDTH 17 0
BBX 13 37 2 0
BITMAP
01F0
01E0
03C0
07C0
0000
0000
0000
0000
0000
0F80
3FE0
7FF0
7FF0
FDF8
F8F8
F8F8
F8F8
F8F8
F8F8
F8F8
FFF8
FFF8
FFF8
FFF8
F800
F800
F800
F8F8
F8F8
F8F8
F8F8
F8F8
FDF8
7FF0
7FF0
3FE0
0F80
ENDCHAR
STARTCHAR 00EA
ENCODING 234
SWIDTH 340 0
DWIDTH 17 0
BBX 13 37 2 0
BITMAP
1FC0
1FC0
3FE0
7DF0
0000
0000
0000
0000
0000
0F80
3FE0
7FF0
7FF0
FDF8
F8F8
F8F8
F8F8
F8F8
F8F8
F8F8
FFF8
FFF8
FFF8
FFF8
F800
F800
F800
F8F8
F8F8
F8F8
F8F8
F8F8
FDF8
7FF0
7FF0
3FE0
0F80
ENDCHAR
STARTCHAR 00EB
ENCODING 235
SWIDTH 340 0
DWIDTH 17 0
BBX 13 37 2 0
BITMAP
F9F0
F9F0
F9F0
F9F0
0000
0000
0000
0000
0000
0F80
3FE0
7FF0
7FF0
FDF8
F8F8
F8F8
F8F8
F8F8
F8F8
F8F8
FFF8
FFF8
FFF8
FFF8
F800
F800
F800
F8F8
F8F8
F8F8
F8F8
F8F8
FDF8
7FF0
7FF0
3FE0
0F80
ENDCHAR
STARTCHAR 00EC
ENCODING 236
SWIDTH 180 0
DWIDTH 9 0
BBX 7 37 0 0
BITMAP
F8
78
7C
3C
00
00
00
00
00
3E
3E
3E
3E
3E
3E
3E
3E
3E
3E
3E
3E
3E
3E
3E
3E
3E
3E
3E
3E
3E
3E
3E
3E
3E
3E
3E
3E
ENDCHAR
STARTCHAR 00ED
ENCODING 237
SWIDTH 180 0
DWIDTH 9 0
BBX 7 37 2 0
BITMAP
3E
3C
78
F0
00
00
00
00
00
F8
F8
F8
F8
F8
F8
F8
F8
F8
F8
F8
F8
F8
F8
F8
F8
F8
F8
F8
F8
F8
F8
F8
F8
F8
F8
F8
F8
ENDCHAR
STARTCHAR 00EE
ENCODING 238
SWIDTH 180 0
DWIDTH 9 0
BBX 11 37 -1 0
BITMAP
3F00
3F80
7FC0
FBE0
0000
0000
0000
0000
0000
1F00
1F00
1F00
1F00
1F00
1F00
1F00
1F00
1F00
1F00
1F00
1F00
1F00
1F00
1F00
1F00
1F00
1F00
1F00
1F00
1F00
1F00
1F00
1F00
1F00
1F00
1F00
1F00
ENDCHAR
STARTCHAR 00EF
ENCODING 239
SWIDTH 180 0
DWIDTH 9 0
BBX 12 37 -1 0
BITMAP
F9F0
F9F0
F9F0
F9F0
0000
0000
0000
0000
0000
1F00
1F00
1F00
1F00
1F00
1F00
1F00
1F00
1F00
1F00
1F00
1F00
1F00
1F00
1F00
1F00
1F00
1F00
1F00
1F00
1F00
1F00
1F00
1F00
1F00
1F00
1F00
1F00
ENDCHAR
STARTCHAR 00F0
ENCODING 240
SWIDTH 320 0
DWIDTH 16 0
BBX 13 37 2 1
BITMAP
0170
03F0
07C0
07C0
07C0
0FE0
0DE0
01F0
01F0
3CF0
7EF0
7FF8
FFF8
FDF8
F8F8
F8F8
F8F8
F8F8
F8F8
F8F8
F8F8
F8F8
F8F8
F8F8
F8F8
F8F8
F8F8
F8F8
F8F8
F8F8
F8F8
F8F8
FFF0
7FF0
7FE0
3FE0
0F80
ENDCHAR
STARTCHAR 00F1
ENCODING 241
SWIDTH 340 0
DWIDTH 17 0
BBX 13 37 2 0
BITMAP
3C00
7FE0
7FE0
7FE0
6FE0
0000
0000
0000
0000
F9C0
FBF0
FFF0
FFF0
FFF8
F8F8
F8F8
F8F8
F8F8
F8F8
F8F8
F8F8
F8F8
F8F8
F8F8
F8F8
F8F8
F8F8
F8F8
F8F8
F8F8
F8F8
F8F8
F8F8
F8F8
F8F8
F8F8
F8F8
ENDCHAR
STARTCHAR 00F2
ENCODING 242
SWIDTH 320 0
DWIDTH 16 0
BBX 13 37 2 0
BITMAP
7C00
3E00
1E00
0F00
0000
0000
0000
0000
0000
0F80
3FC0
7FE0
7FF0
FFF0
F8F8
F8F8
F8F8
F8F8
F8F8
F8F8
F8F8
F8F8
F8F8
F8F8
F8F8
F8F8
F8F8
F8F8
F8F8
F8F8
F8F8
F8F8
FFF0
7FF0
7FE0
3FE0
0F80
ENDCHAR
STARTCHAR 00F3
ENCODING 243
SWIDTH 320 0
DWIDTH 16 0
BBX 13 37 2 0
BITMAP
01F0
03E0
03C0
0780
0000
0000
0000
0000
0000
0F80
3FC0
7FE0
7FF0
FFF0
F8F8
F8F8
F8F8
F8F8
F8F8
F8F8
F8F8
F8F8
F8F8
F8F8
F8F8
F8F8
F8F8
F8F8
F8F8
F8F8
F8F8
F8F8
FFF0
7FF0
7FE0
3FE0
0F80
ENDCHAR
STARTCHAR 00F4
ENCODING 244
SWIDTH 320 0
DWIDTH 16 0
BBX 13 37 2 0
BITMAP
1F80
1FC0
3FE0
7DF0
0000
0000
0000
0000
0000
0F80
3FC0
7FE0
7FF0
FFF0
F8F8
F8F8
F8F8
F8F8
F8F8
F8F8
F8F8
F8F8
F8F8
F8F8
F8F8
F8F8
F8F8
F8F8
F8F8
F8F8
F8F8
F8F8
FFF0
7FF0
7FE0
3FE0
0F80
ENDCHAR
STARTCHAR 00F5
ENCODING 245
SWIDTH 320 0
DWIDTH 16 0
BBX 13 37 2 0
BITMAP
7F60
7FE0
7FE0
7FE0
77E0
0000
0000
0000
0000
0F80
3FC0
7FE0
7FF0
FFF0
F8F8
F8F8
F8F8
F8F8
F8F8
F8F8
F8F8
F8F8
F8F8
F8F8
F8F8
F8F8
F8F8
F8F8
F8F8
F8F8
F8F8
F8F8
FFF0
7FF0
7FE0
3FE0
0F80
ENDCHAR
STARTCHAR 00F6
ENCODING 246
SWIDTH 320 0
DWIDTH 16 0
BBX 13 37 2 0
BITMAP
F9F0
F9F0
F9F0
F9F0
0000
0000
0000
0000
0000
0F80
3FC0
7FE0
7FF0
FFF0
F8F8
F8F8
F8F8
F8F8
F8F8
F8F8
F8F8
F8F8
F8F8
F8F8
F8F8
F8F8
F8F8
F8F8
F8F8
F8F8
F8F8
F8F8
FFF0
7FF0
7FE0
3FE0
0F80
ENDCHAR
STARTCHAR 00F8
ENCODING 248
SWIDTH 320 0
DWIDTH 16 0
BBX 13 32 2 -2
BITMAP
0060
0060
0FE0
3FC0
7FE0
7FF0
FDF0
F8F0
F9F8
F9F8
F9F8
F9F8
FBF8
FBF8
FBF8
FAF8
FEF8
FEF8
FEF8
FCF8
FCF8
FCF8
FCF8
F8F8
F8F8
FFF0
7FF0
7FE0
3FE0
3F80
3000
6000
ENDCHAR
STARTCHAR 00F9
ENCODING 249
SWIDTH 340 0
DWIDTH 17 0
BBX 13 37 2 0
BITMAP
7C00
3E00
1F00
0F00
0000
0000
0000
0000
0000
F8F8
F8F8
F8F8
F8F8
F8F8
F8F8
F8F8
F8F8
F8F8
F8F8
F8F8
F8F8
F8F8
F8F8
F8F8
F8F8
F8F8
F8F8
F8F8
F8F8
F8F8
F8F8
F8F8
FFF8
FFF8
7FF8
7EF8
3CF8
ENDCHAR
STARTCHAR 00FA
ENCODING 250
SWIDTH 340 0
DWIDTH 17 0
BBX 13 37 2 0
BITMAP
01F0
03E0
03C0
07C0
0000
0000
0000
0000
0000
F8F8
F8F8
F8F8
F8F8
F8F8
F8F8
F8F8
F8F8
F8F8
F8F8
F8F8
F8F8
F8F8
F8F8
F8F8
F8F8
F8F8
F8F8
F8F8
F8F8
F8F8
F8F8
F8F8
FFF8
FFF8
7FF8
7EF8
3CF8
ENDCHAR
STARTCHAR 00FB
ENCODING 251
SWIDTH 340 0
DWIDTH 17 0
BBX 13 37 2 0
BITMAP
1FC0
3FC0
3FE0
7DF0
0000
0000
0000
0000
0000
F8F8
F8F8
F8F8
F8F8
F8F8
F8F8
F8F8
F8F8
F8F8
F8F8
F8F8
F8F8
F8F8
F8F8
F8F8
F8F8
F8F8
F8F8
F8F8
F8F8
F8F8
F8F8
F8F8
FFF8
FFF8
7FF8
7EF8
3CF8
ENDCHAR
STARTCHAR 00FC
ENCODING 252
SWIDTH 340 0
DWIDTH 17 0
BBX 13 37 2 0
BITMAP
7CF8
7CF8
7CF8
7CF8
0000
0000
0000
0000
0000
F8F8
F8F8
F8F8
F8F8
F8F8
F8F8
F8F8
F8F8
F8F8
F8F8
F8F8
F8F8
F8F8
F8F8
F8F8
F8F8
F8F8
F8F8
F8F8
F8F8
F8F8
F8F8
F8F8
FFF8
FFF8
7FF8
7EF8
3CF8
ENDCHAR
STARTCHAR 00FD
ENCODING 253
SWIDTH 320 0
DWIDTH 16 0
BBX 14 46 1 -9
BITMAP
01F0
01E0
03E0
07C0
0000
0000
0000
0000
0000
F87C
F87C
F87C
F87C
7878
7878
7CF8
7CF8
7CF8
7CF8
3CF0
3CF0
3CF0
3CF0
3FF0
3FF0
1FE0
1FE0
1FE0
1FE0
1FE0
1FE0
0FC0
0FC0
0FC0
0FC0
0FC0
0FC0
0F80
0F80
0F80
1F80
7F00
FF00
FE00
FC00
F800
ENDCHAR
STARTCHAR 00FE
ENCODING 254
SWIDTH 320 0
DWIDTH 16 0
BBX 13 46 2 -9
BITMAP
F800
F800
F800
F800
F800
F800
F800
F800
F800
F9C0
FFF0
FFF0
FFF0
FFF8
F8F8
F8F8
F8F8
F8F8
F8F8
F8F8
F8F8
F8F8
F8F8
F8F8
F8F8
F8F8
F8F8
F8F8
F8F8
F8F8
F8F8
F8F8
FFF8
FFF0
FFF0
FFF0
F9C0
F800
F800
F800
F800
F800
F800
F800
F800
F800
ENDCHAR
STARTCHAR 00FF
ENCODING 255
SWIDTH 320 0
DWIDTH 16 0
BBX 14 46 1 -9
BITMAP
7CF8
7CF8
7CF8
7CF8
0000
0000
0000
0000
0000
F87C
F87C
F87C
F878
78F8
78F8
78F8
7CF8
7CF8
7CF0
3CF0
3CF0
3CF0
3DF0
3DF0
3DE0
3FE0
1FE0
1FE0
1FE0
1FE0
1FC0
1FC0
0FC0
0FC0
0FC0
0FC0
0F80
0F80
0F80
0F80
1F80
7F00
FF00
FE00
FC00
F800
ENDCHAR
STARTCHAR 0100
ENCODING 256
SWIDTH 380 0
DWIDTH 19 0
BBX 18 46 1 0
BITMAP
0FFC00
0FFC00
0FFC00
0FFC00
000000
000000
000000
000000
000000
07F000
07F800
07F800
07F800
07F800
07F800
07F800
0FF800
0FFC00
0FFC00
0FFC00
0FFC00
0FFC00
1F7C00
1F3E00
1F3E00
1F3E00
1F3E00
1F3E00
1F3E00
3F3E00
3E1F00
3E1F00
3E1F00
3FFF00
3FFF00
3FFF00
7FFF80
7FFF80
7FFF80
7C0F80
7C0F80
7C0F80
FC0F80
FC0FC0
F80FC0
F807C0
ENDCHAR
STARTCHAR 0101
ENCODING 257
SWIDTH 320 0
DWIDTH 16 0
BBX 13 37 1 0
BITMAP
3FF0
3FF0
3FF0
3FF0
0000
0000
0000
0000
0000
0780
1FE0
3FF0
3FF0
7FF0
7CF8
7CF8
7CF8
7CF8
00F8
00F8
03F8
0FF8
1FF8
3FF8
7EF8
7CF8
78F8
F8F8
F8F8
F8F8
F8F8
F8F8
FFF8
FFF8
7FF8
7EF8
3CF8
ENDCHAR
STARTCHAR 0102
ENCODING 258
SWIDTH 380 0
DWIDTH 19 0
BBX 17 46 1 0
BITMAP
043000
0FF800
1FFC00
0FF800
03E000
000000
000000
000000
000000
07F000
07F000
07F000
07F000
0FF000
0FF000
0FF800
0FF800
0FF800
0FF800
1FF800
1F7800
1F7C00
1F7C00
1F7C00
1F7C00
1E7C00
3E7C00
3E7C00
3E3E00
3E3E00
3E3E00
3E3E00
3E3E00
7FFE00
7FFE00
7FFF00
7FFF00
7FFF00
7FFF00
FC1F00
FC1F00
F81F80
F81F80
F80F80
F80F80
F80F80
ENDCHAR
STARTCHAR 0103
ENCODING 259
SWIDTH 320 0
DWIDTH 16 0
BBX 13 37 1 0
BITMAP
0840
1FE0
3FF0
1FE0
0780
0000
0000
0000
0000
0780
1FE0
3FF0
3FF0
7FF0
7CF8
7CF8
7CF8
7CF8
00F8
00F8
03F8
0FF8
1FF8
3FF8
7EF8
7CF8
78F8
F8F8
F8F8
F8F8
F8F8
F8F8
FFF8
FFF8
7FF8
7EF8
3CF8
ENDCHAR
STARTCHAR 0104
ENCODING 260
SWIDTH 360 0
DWIDTH 18 0
BBX 18 46 0 -9
BITMAP
03F000
03F000
03F800
07F800
07F800
07F800
07F800
07F800
07F800
0FFC00
0FFC00
0FFC00
0FBC00
0FBC00
0FBC00
0F3C00
1F3E00
1F3E00
1F3E00
1F3E00
1F1E00
1F1E00
1E1E00
3FFF00
3FFF00
3FFF00
3FFF00
3FFF00
3FFF00
7E0F80
7C0F80
7C0F80
7C0F80
7C0F80
7C0F80
7C0F80
FC0FC0
000E00
001C00
001800
003800
003800
003C00
003F80
001F80
000F80
ENDCHAR
STARTCHAR 0105
ENCODING 261
SWIDTH 320 0
DWIDTH 16 0
BBX 13 37 1 -9
BITMAP
0780
1FE0
3FF0
3FF0
7FF0
7CF8
7CF8
7CF8
7CF8
00F8
00F8
03F8
0FF8
1FF8
3FF8
7EF8
7CF8
78F8
F8F8
F8F8
F8F8
F8F8
F8F8
FFF8
FFF8
7FF8
7EF8
3CF8
00E0
01C0
0180
0380
0380
03C0
03F8
01F8
00F8
ENDCHAR
STARTCHAR 0106
ENCODING 262
SWIDTH 340 0
DWIDTH 17 0
BBX 14 46 2 0
BITMAP
07C0
0F80
0F00
1E00
0000
0000
0000
0000
0000
0FC0
1FE0
3FF0
7FF8
7FF8
FC7C
F87C
F87C
F87C
F87C
F87C
F87C
F87C
F800
F800
F800
F800
F800
F800
F800
F800
F800
F800
F800
F87C
F87C
F87C
F87C
F87C
F87C
F87C
FC7C
7FF8
7FF8
3FF0
3FE0
0FC0
ENDCHAR
STARTCHAR 0107
ENCODING 263
SWIDTH 320 0
DWIDTH 16 0
BBX 13 37 2 0
BITMAP
0FC0
0F80
1F00
1E00
0000
0000
0000
0000
0000
0F80
3FE0
7FF0
7FF0
FFF0
F8F8
F8F8
F8F8
F8F8
F8F8
F800
F800
F800
F800
F800
F800
F800
F800
F8F8
F8F8
F8F8
F8F8
F8F8
FFF0
7FF0
7FF0
3FE0
0F80
ENDCHAR
STARTCHAR 0108
ENCODING 264
SWIDTH 340 0
DWIDTH 17 0
BBX 14 46 2 0
BITMAP
1FC0
1FE0
3FF0
7CF8
0000
0000
0000
0000
0000
0FC0
1FE0
3FF0
7FF8
7FF8
FC7C
F87C
F87C
F87C
F87C
F87C
F87C
F87C
F800
F800
F800
F800
F800
F800
F800
F800
F800
F800
F800
F87C
F87C
F87C
F87C
F87C
F87C
F87C
FC7C
7FF8
7FF8
3FF0
3FE0
0FC0
ENDCHAR
STARTCHAR 0109
ENCODING 265
SWIDTH 320 0
DWIDTH 16 0
BBX 13 37 2 0
BITMAP
1F80
3FC0
3FE0
79F0
0000
0000
0000
0000
0000
0F80
3FE0
7FF0
7FF0
FFF0
F8F8
F8F8
F8F8
F8F8
F8F8
F800
F800
F800
F800
F800
F800
F800
F800
F8F8
F8F8
F8F8
F8F8
F8F8
FFF0
7FF0
7FF0
3FE0
0F80
ENDCHAR
STARTCHAR 010A
ENCODING 266
SWIDTH 340 0
DWIDTH 17 0
BBX 14 47 2 0
BITMAP
07C0
07C0
07C0
07C0
07C0
0000
0000
0000
0000
0000
0FC0
1FE0
3FF0
7FF8
7FF8
FC7C
F87C
F87C
F87C
F87C
F87C
F87C
F87C
F800
F800
F800
F800
F800
F800
F800
F800
F800
F800
F800
F87C
F87C
F87C
F87C
F87C
F87C
F87C
FC7C
7FF8
7FF8
3FF0
3FE0
0FC0
ENDCHAR
STARTCHAR 010B
ENCODING 267
SWIDTH 320 0
DWIDTH 16 0
BBX 13 37 2 0
BITMAP
0F80
0F80
0F80
0F80
0F80
0000
0000
0000
0000
0F80
3FE0
7FF0
7FF0
FFF0
F8F8
F8F8
F8F8
F8F8
F8F8
F800
F800
F800
F800
F800
F800
F800
F800
F8F8
F8F8
F8F8
F8F8
F8F8
FFF0
7FF0
7FF0
3FE0
0F80
ENDCHAR
STARTCHAR 010C
ENCODING 268
SWIDTH 340 0
DWIDTH 17 0
BBX 14 46 2 0
BITMAP
7CF0
3FF0
1FE0
0FC0
0000
0000
0000
0000
0000
0FC0
1FE0
3FF0
7FF8
7FF8
FC7C
F87C
F87C
F87C
F87C
F87C
F87C
F87C
F800
F800
F800
F800
F800
F800
F800
F800
F800
F800
F800
F87C
F87C
F87C
F87C
F87C
F87C
F87C
FC7C
7FF8
7FF8
3FF0
3FE0
0FC0
ENDCHAR
STARTCHAR 010D
ENCODING 269
SWIDTH 320 0
DWIDTH 16 0
BBX 13 37 2 0
BITMAP
79F0
7FE0
3FC0
1FC0
0000
0000
0000
0000
0000
0F80
3FE0
7FF0
7FF0
FFF0
F8F8
F8F8
F8F8
F8F8
F8F8
F800
F800
F800
F800
F800
F800
F800
F800
F8F8
F8F8
F8F8
F8F8
F8F8
FFF0
7FF0
7FF0
3FE0
0F80
ENDCHAR
STARTCHAR 010E
ENCODING 270
SWIDTH 380 0
DWIDTH 19 0
BBX 15 46 2 0
BITMAP
3CF8
3FF0
1FE0
0FE0
0000
0000
0000
0000
0000
FF80
FFE0
FFF8
FFF8
FFFC
F8FC
F8FC
F87C
F87E
F87E
F87E
F87E
F87E
F87E
F87E
F87E
F87E
F87E
F87E
F87E
F87E
F87E
F87E
F87E
F87E
F87E
F87E
F87E
F87E
F87C
F8FC
F8FC
FFFC
FFF8
FFF8
FFE0
FF80
ENDCHAR
STARTCHAR 010F
ENCODING 271
SWIDTH 480 0
DWIDTH 24 0
BBX 21 37 2 0
BITMAP
00F8F8
00F8F8
00F8F8
00F8F8
00F8F8
00F8F8
00F838
00F870
00F870
3CF870
7EF860
7FF8E0
FFF800
FFF800
F8F800
F8F800
F8F800
F8F800
F8F800
F8F800
F8F800
F8F800
F8F800
F8F800
F8F800
F8F800
F8F800
F8F800
F8F800
F8F800
F8F800
F8F800
FDF800
FFF800
7FF800
7FF800
3CF800
ENDCHAR
STARTCHAR 0110
ENCODING 272
SWIDTH 380 0
DWIDTH 19 0
BBX 18 37 -1 0
BITMAP
1FF000
1FFC00
1FFF00
1FFF00
1FFF80
1F1F80
1F1F80
1F0F80
1F0FC0
1F0FC0
1F0FC0
1F0FC0
1F0FC0
1F0FC0
1F0FC0
1F0FC0
FFCFC0
FFCFC0
FFCFC0
FFCFC0
1F0FC0
1F0FC0
1F0FC0
1F0FC0
1F0FC0
1F0FC0
1F0FC0
1F0FC0
1F0FC0
1F0F80
1F1F80
1F1F80
1FFF80
1FFF00
1FFF00
1FFC00
1FF000
ENDCHAR
STARTCHAR 0111
ENCODING 273
SWIDTH 340 0
DWIDTH 17 0
BBX 14 37 2 0
BITMAP
00F8
00F8
01FC
01FC
01FC
01FC
00F8
00F8
00F8
3CF8
7EF8
7FF8
FFF8
FFF8
F8F8
F8F8
F8F8
F8F8
F8F8
F8F8
F8F8
F8F8
F8F8
F8F8
F8F8
F8F8
F8F8
F8F8
F8F8
F8F8
F8F8
F8F8
FDF8
FFF8
7FF8
7FF8
3CF8
ENDCHAR
STARTCHAR 0112
ENCODING 274
SWIDTH 320 0
DWIDTH 16 0
BBX 13 46 2 0
BITMAP
7FE0
7FE0
7FE0
7FE0
0000
0000
0000
0000
0000
FFF8
FFF8
FFF8
FFF8
FFF8
FFF8
F800
F800
F800
F800
F800
F800
F800
F800
F800
FFE0
FFE0
FFE0
FFE0
FFE0
FFE0
F800
F800
F800
F800
F800
F800
F800
F800
F800
F800
FFF8
FFF8
FFF8
FFF8
FFF8
FFF8
ENDCHAR
STARTCHAR 0113
ENCODING 275
SWIDTH 340 0
DWIDTH 17 0
BBX 13 37 2 0
BITMAP
7FE0
7FE0
7FE0
7FE0
0000
0000
0000
0000
0000
0F80
3FE0
7FF0
7FF0
FDF8
F8F8
F8F8
F8F8
F8F8
F8F8
F8F8
FFF8
FFF8
FFF8
FFF8
F800
F800
F800
F8F8
F8F8
F8F8
F8F8
F8F8
FDF8
7FF0
7FF0
3FE0
0F80
ENDCHAR
STARTCHAR 0114
ENCODING 276
SWIDTH 320 0
DWIDTH 16 0
BBX 13 46 2 0
BITMAP
3080
7FC0
FFE0
7FC0
1F00
0000
0000
0000
0000
FFF8
FFF8
FFF8
FFF8
FFF8
FFF8
F800
F800
F800
F800
F800
F800
F800
F800
F800
FFE0
FFE0
FFE0
FFE0
FFE0
FFE0
F800
F800
F800
F800
F800
F800
F800
F800
F800
F800
FFF8
FFF8
FFF8
FFF8
FFF8
FFF8
ENDCHAR
STARTCHAR 0115
ENCODING 277
SWIDTH 340 0
DWIDTH 17 0
BBX 13 37 2 0
BITMAP
1040
3FE0
7FF0
3FE0
0F80
0000
0000
0000
0000
0F80
3FE0
7FF0
7FF0
FDF8
F8F8
F8F8
F8F8
F8F8
F8F8
F8F8
FFF8
FFF8
FFF8
FFF8
F800
F800
F800
F8F8
F8F8
F8F8
F8F8
F8F8
FDF8
7FF0
7FF0
3FE0
0F80
ENDCHAR
STARTCHAR 0116
ENCODING 278
SWIDTH 320 0
DWIDTH 16 0
BBX 13 47 2 0
BITMAP
1F00
1F00
1F00
1F00
1F00
0000
0000
0000
0000
0000
FFF8
FFF8
FFF8
FFF8
FFF8
FFF8
F800
F800
F800
F800
F800
F800
F800
F800
F800
FFE0
FFE0
FFE0
FFE0
FFE0
FFE0
F800
F800
F800
F800
F800
F800
F800
F800
F800
F800
FFF8
FFF8
FFF8
FFF8
FFF8
FFF8
ENDCHAR
STARTCHAR 0117
ENCODING 279
SWIDTH 340 0
DWIDTH 17 0
BBX 13 37 2 0
BITMAP
0F80
0F80
0F80
0F80
0F80
0000
0000
0000
0000
0F80
3FE0
7FF0
7FF0
FDF8
F8F8
F8F8
F8F8
F8F8
F8F8
F8F8
FFF8
FFF8
FFF8
FFF8
F800
F800
F800
F8F8
F8F8
F8F8
F8F8
F8F8
FDF8
7FF0
7FF0
3FE0
0F80
ENDCHAR
STARTCHAR 0118
ENCODING 280
SWIDTH 320 0
DWIDTH 16 0
BBX 13 46 2 -9
BITMAP
FFF8
FFF8
FFF8
FFF8
FFF8
FFF8
F800
F800
F800
F800
F800
F800
F800
F800
F800
FFE0
FFE0
FFE0
FFE0
FFE0
FFE0
F800
F800
F800
F800
F800
F800
F800
F800
F800
F800
FFF8
FFF8
FFF8
FFF8
FFF8
FFF8
01C0
0380
0300
0700
0700
0780
07F0
03F0
01F0
ENDCHAR
STARTCHAR 0119
ENCODING 281
SWIDTH 340 0
DWIDTH 17 0
BBX 13 37 2 -9
BITMAP
0F80
3FE0
7FF0
7FF0
FDF8
F8F8
F8F8
F8F8
F8F8
F8F8
F8F8
FFF8
FFF8
FFF8
FFF8
F800
F800
F800
F8F8
F8F8
F8F8
F8F8
F8F8
FDF8
7FF0
7FF0
3FE0
0F80
01C0
0380
0300
0700
0700
0780
07F8
03F8
00F8
ENDCHAR
STARTCHAR 011A
ENCODING 282
SWIDTH 320 0
DWIDTH 16 0
BBX 13 46 2 0
BITMAP
F1F0
7BE0
7FC0
3F80
0000
0000
0000
0000
0000
FFF8
FFF8
FFF8
FFF8
FFF8
FFF8
F800
F800
F800
F800
F800
F800
F800
F800
F800
FFE0
FFE0
FFE0
FFE0
FFE0
FFE0
F800
F800
F800
F800
F800
F800
F800
F800
F800
F800
FFF8
FFF8
FFF8
FFF8
FFF8
FFF8
ENDCHAR
STARTCHAR 011B
ENCODING 283
SWIDTH 340 0
DWIDTH 17 0
BBX 13 37 2 0
BITMAP
78F0
7DE0
3FE0
1FC0
0000
0000
0000
0000
0000
0F80
3FE0
7FF0
7FF0
FDF8
F8F8
F8F8
F8F8
F8F8
F8F8
F8F8
FFF8
FFF8
FFF8
FFF8
F800
F800
F800
F8F8
F8F8
F8F8
F8F8
F8F8
FDF8
7FF0
7FF0
3FE0
0F80
ENDCHAR
STARTCHAR 011C
ENCODING 284
SWIDTH 360 0
DWIDTH 18 0
BBX 14 46 2 0
BITMAP
0FE0
1FE0
3FF0
3CF8
0000
0000
0000
0000
0000
0FC0
1FE0
3FF0
7FF8
7FF8
FCFC
F87C
F87C
F87C
F87C
F87C
F87C
F87C
F800
F800
F800
F800
F800
F9FC
F9FC
F9FC
F9FC
F87C
F87C
F87C
F87C
F87C
F87C
F87C
F87C
F87C
F87C
FFFC
7FFC
7FFC
3FDC
0F9C
ENDCHAR
STARTCHAR 011D
ENCODING 285
SWIDTH 380 0
DWIDTH 19 0
BBX 17 46 1 -9
BITMAP
07F000
07F000
0FF800
1F7C00
000000
000000
000000
000000
000000
07C180
0FF380
1FFF80
3FFF80
3EFF00
7C7C00
7C7C00
7C7C00
7C7C00
7C7C00
7C7C00
7C7C00
7C7C00
7C7C00
7C7C00
3E7C00
3FFC00
3FF800
1FF000
0FE000
1E0000
3C0000
7E0000
7FE000
7FFC00
7FFE00
3FFF00
1FFF80
3CFF80
780F80
F80F80
F80F80
FEFF80
FFFF00
7FFE00
3FFC00
0FF000
ENDCHAR
STARTCHAR 011E
ENCODING 286
SWIDTH 360 0
DWIDTH 18 0
BBX 14 47 2 0
BITMAP
0860
1FF0
3FF0
1FE0
07C0
0000
0000
0000
0000
0000
0FC0
1FE0
3FF0
7FF8
7FF8
FCFC
F87C
F87C
F87C
F87C
F87C
F87C
F87C
F800
F800
F800
F800
F800
F9FC
F9FC
F9FC
F9FC
F87C
F87C
F87C
F87C
F87C
F87C
F87C
F87C
F87C
F87C
FFFC
7FFC
7FFC
3FDC
0F9C
ENDCHAR
STARTCHAR 011F
ENCODING 287
SWIDTH 380 0
DWIDTH 19 0
BBX 17 47 1 -9
BITMAP
043000
0FF800
1FFC00
0FF800
03E000
000000
000000
000000
000000
000000
07C180
0FF380
1FFF80
3FFF80
3EFF00
7C7C00
7C7C00
7C7C00
7C7C00
7C7C00
7C7C00
7C7C00
7C7C00
7C7C00
7C7C00
3E7C00
3FFC00
3FF800
1FF000
0FE000
1E0000
3C0000
7E0000
7FE000
7FFC00
7FFE00
3FFF00
1FFF80
3CFF80
780F80
F80F80
F80F80
FEFF80
FFFF00
7FFE00
3FFC00
0FF000
ENDCHAR
STARTCHAR 0120
ENCODING 288
SWIDTH 360 0
DWIDTH 18 0
BBX 14 47 2 0
BITMAP
07C0
07C0
07C0
07C0
07C0
0000
0000
0000
0000
0000
0FC0
1FE0
3FF0
7FF8
7FF8
FCFC
F87C
F87C
F87C
F87C
F87C
F87C
F87C
F800
F800
F800
F800
F800
F9FC
F9FC
F9FC
F9FC
F87C
F87C
F87C
F87C
F87C
F87C
F87C
F87C
F87C
F87C
FFFC
7FFC
7FFC
3FFC
0F1C
ENDCHAR
STARTCHAR 0121
ENCODING 289
SWIDTH 380 0
DWIDTH 19 0
BBX 17 46 1 -9
BITMAP
03E000
03E000
03E000
03E000
03E000
000000
000000
000000
000000
07C180
0FF380
1FFF80
3FFF80
3EFF00
7C7C00
7C7C00
7C7C00
7C7C00
7C7C00
7C7C00
7C7C00
7C7C00
7C7C00
7C7C00
3E7C00
3FFC00
3FF800
1FF000
0FE000
1E0000
3C0000
7E0000
7FE000
7FFC00
7FFE00
3FFF00
1FFF80
3CFF80
780F80
F80F80
F80F80
FEFF80
FFFF00
7FFE00
3FFC00
0FF000
ENDCHAR
STARTCHAR 0122
ENCODING 290
SWIDTH 360 0
DWIDTH 18 0
BBX 14 46 2 -9
BITMAP
0FC0
1FE0
3FF0
7FF8
7FF8
FCFC
F87C
F87C
F87C
F87C
F87C
F87C
F87C
F800
F800
F800
F800
F800
F9FC
F9FC
F9FC
F9FC
F87C
F87C
F87C
F87C
F87C
F87C
F87C
F87C
F87C
F87C
FFFC
7FFC
7FFC
3FFC
0F9C
0000
0000
0F80
0F80
0F80
0380
0380
0700
0700
ENDCHAR
STARTCHAR 0123
ENCODING 291
SWIDTH 380 0
DWIDTH 19 0
BBX 17 57 1 -9
BITMAP
006000
00C000
00C000
01C000
01C000
01C000
038000
03E000
03E000
03E000
03E000
03E000
03E000
000000
000000
000000
000000
000000
000000
000000
07C180
0FF380
1FFF80
3FFF80
3EFF00
7C7C00
7C7C00
7C7C00
7C7C00
7C7C00
7C7C00
7C7C00
7C7C00
7C7C00
7C7C00
3E7C00
3FFC00
3FF800
1FF000
0FE000
1E0000
3C0000
7E0000
7FE000
7FFC00
7FFE00
3FFF00
1FFF80
3CFF80
780F80
F80F80
F80F80
FEFF80
FFFF00
7FFE00
3FFC00
0FF000
ENDCHAR
STARTCHAR 0124
ENCODING 292
SWIDTH 380 0
DWIDTH 19 0
BBX 15 46 2 0
BITMAP
0FE0
1FF0
1FF0
3EF8
0000
0000
0000
0000
0000
F83E
F83E
F83E
F83E
F83E
F83E
F83E
F83E
F83E
F83E
F83E
F83E
F83E
F83E
F83E
FFFE
FFFE
FFFE
FFFE
FFFE
FFFE
F83E
F83E
F83E
F83E
F83E
F83E
F83E
F83E
F83E
F83E
F83E
F83E
F83E
F83E
F83E
F83E
ENDCHAR
STARTCHAR 0125
ENCODING 293
SWIDTH 340 0
DWIDTH 17 0
BBX 13 37 2 0
BITMAP
FF80
FFC0
FFC0
FDE0
F8F0
F800
F800
F800
F800
F9C0
FBF0
FFF0
FFF0
FFF8
F8F8
F8F8
F8F8
F8F8
F8F8
F8F8
F8F8
F8F8
F8F8
F8F8
F8F8
F8F8
F8F8
F8F8
F8F8
F8F8
F8F8
F8F8
F8F8
F8F8
F8F8
F8F8
F8F8
ENDCHAR
STARTCHAR 0126
ENCODING 294
SWIDTH 400 0
DWIDTH 20 0
BBX 19 37 1 0
BITMAP
3E0F80
3E0F80
3E0F80
3E0F80
3E0F80
FFFFE0
FFFFE0
FFFFE0
FFFFE0
3E0F80
3E0F80
3E0F80
3E0F80
3E0F80
3E0F80
3FFF80
3FFF80
3FFF80
3FFF80
3FFF80
3FFF80
3E0F80
3E0F80
3E0F80
3E0F80
3E0F80
3E0F80
3E0F80
3E0F80
3E0F80
3E0F80
3E0F80
3E0F80
3E0F80
3E0F80
3E0F80
3E0F80
ENDCHAR
STARTCHAR 0127
ENCODING 295
SWIDTH 360 0
DWIDTH 18 0
BBX 15 37 1 0
BITMAP
3E00
3E00
FFC0
FFC0
FFC0
FFC0
3E00
3E00
3E00
3E70
3EFC
3FFC
3FFC
3FFE
3E3E
3E3E
3E3E
3E3E
3E3E
3E3E
3E3E
3E3E
3E3E
3E3E
3E3E
3E3E
3E3E
3E3E
3E3E
3E3E
3E3E
3E3E
3E3E
3E3E
3E3E
3E3E
3E3E
ENDCHAR
STARTCHAR 0128
ENCODING 296
SWIDTH 200 0
DWIDTH 10 0
BBX 10 46 0 0
BITMAP
FEC0
FFC0
FFC0
FFC0
0780
0000
0000
0000
0000
3E00
3E00
3E00
3E00
3E00
3E00
3E00
3E00
3E00
3E00
3E00
3E00
3E00
3E00
3E00
3E00
3E00
3E00
3E00
3E00
3E00
3E00
3E00
3E00
3E00
3E00
3E00
3E00
3E00
3E00
3E00
3E00
3E00
3E00
3E00
3E00
3E00
ENDCHAR
STARTCHAR 0129
ENCODING 297
SWIDTH 200 0
DWIDTH 10 0
BBX 10 37 0 0
BITMAP
7800
FFC0
FFC0
FFC0
DFC0
0000
0000
0000
0000
3E00
3E00
3E00
3E00
3E00
3E00
3E00
3E00
3E00
3E00
3E00
3E00
3E00
3E00
3E00
3E00
3E00
3E00
3E00
3E00
3E00
3E00
3E00
3E00
3E00
3E00
3E00
3E00
ENDCHAR
STARTCHAR 012A
ENCODING 298
SWIDTH 200 0
DWIDTH 10 0
BBX 10 46 0 0
BITMAP
FFC0
FFC0
FFC0
FFC0
0000
0000
0000
0000
0000
3E00
3E00
3E00
3E00
3E00
3E00
3E00
3E00
3E00
3E00
3E00
3E00
3E00
3E00
3E00
3E00
3E00
3E00
3E00
3E00
3E00
3E00
3E00
3E00
3E00
3E00
3E00
3E00
3E00
3E00
3E00
3E00
3E00
3E00
3E00
3E00
3E00
ENDCHAR
STARTCHAR 012B
ENCODING 299
SWIDTH 200 0
DWIDTH 10 0
BBX 10 36 0 0
BITMAP
FFC0
FFC0
FFC0
FFC0
0000
0000
0000
0000
3E00
3E00
3E00
3E00
3E00
3E00
3E00
3E00
3E00
3E00
3E00
3E00
3E00
3E00
3E00
3E00
3E00
3E00
3E00
3E00
3E00
3E00
3E00
3E00
3E00
3E00
3E00
3E00
ENDCHAR
STARTCHAR 012C
ENCODING 300
SWIDTH 180 0
DWIDTH 9 0
BBX 11 46 -1 0
BITMAP
3180
7FC0
FFE0
7FC0
1F00
0000
0000
0000
0000
1F00
1F00
1F00
1F00
1F00
1F00
1F00
1F00
1F00
1F00
1F00
1F00
1F00
1F00
1F00
1F00
1F00
1F00
1F00
1F00
1F00
1F00
1F00
1F00
1F00
1F00
1F00
1F00
1F00
1F00
1F00
1F00
1F00
1F00
1F00
1F00
1F00
ENDCHAR
STARTCHAR 012D
ENCODING 301
SWIDTH 180 0
DWIDTH 9 0
BBX 11 37 -1 0
BITMAP
3180
7FC0
FFE0
7FC0
1F00
0000
0000
0000
0000
1F00
1F00
1F00
1F00
1F00
1F00
1F00
1F00
1F00
1F00
1F00
1F00
1F00
1F00
1F00
1F00
1F00
1F00
1F00
1F00
1F00
1F00
1F00
1F00
1F00
1F00
1F00
1F00
ENDCHAR
STARTCHAR 012E
ENCODING 302
SWIDTH 200 0
DWIDTH 10 0
BBX 8 46 0 -9
BITMAP
1F
1F
1F
1F
1F
1F
1F
1F
1F
1F
1F
1F
1F
1F
1F
1F
1F
1F
1F
1F
1F
1F
1F
1F
1F
1F
1F
1F
1F
1F
1F
1F
1F
1F
1F
1F
1F
38
70
60
E0
E0
F0
FF
7F
3F
ENDCHAR
STARTCHAR 012F
ENCODING 303
SWIDTH 180 0
DWIDTH 9 0
BBX 7 46 1 -9
BITMAP
7C
7C
7C
7C
7C
00
00
00
00
7C
7C
7C
7C
7C
7C
7C
7C
7C
7C
7C
7C
7C
7C
7C
7C
7C
7C
7C
7C
7C
7C
7C
7C
7C
7C
7C
7C
38
70
60
E0
E0
F0
FE
7E
3E
ENDCHAR
STARTCHAR 0130
ENCODING 304
SWIDTH 180 0
DWIDTH 9 0
BBX 5 47 2 0
BITMAP
F8
F8
F8
F8
F8
00
00
00
00
00
F8
F8
F8
F8
F8
F8
F8
F8
F8
F8
F8
F8
F8
F8
F8
F8
F8
F8
F8
F8
F8
F8
F8
F8
F8
F8
F8
F8
F8
F8
F8
F8
F8
F8
F8
F8
F8
ENDCHAR
STARTCHAR 0131
ENCODING 305
SWIDTH 180 0
DWIDTH 9 0
BBX 5 28 2 0
BITMAP
F8
F8
F8
F8
F8
F8
F8
F8
F8
F8
F8
F8
F8
F8
F8
F8
F8
F8
F8
F8
F8
F8
F8
F8
F8
F8
F8
F8
ENDCHAR
STARTCHAR 0132
ENCODING 306
SWIDTH 400 0
DWIDTH 20 0
BBX 16 37 2 0
BITMAP
F81F
F81F
F81F
F81F
F81F
F81F
F81F
F81F
F81F
F81F
F81F
F81F
F81F
F81F
F81F
F81F
F81F
F81F
F81F
F81F
F81F
F81F
F81F
F81F
F81F
F81F
F81F
F81F
F81F
F81F
F81F
F83F
F8FF
F8FE
F8FE
F8FC
F8E0
ENDCHAR
STARTCHAR 0133
ENCODING 307
SWIDTH 360 0
DWIDTH 18 0
BBX 14 46 2 -9
BITMAP
F87C
F87C
F87C
F87C
F87C
0000
0000
0000
0000
F87C
F87C
F87C
F87C
F87C
F87C
F87C
F87C
F87C
F87C
F87C
F87C
F87C
F87C
F87C
F87C
F87C
F87C
F87C
F87C
F87C
F87C
F87C
F87C
F87C
F87C
F87C
F87C
007C
007C
007C
007C
01F8
03F8
03F8
03F0
03E0
ENDCHAR
STARTCHAR 0134
ENCODING 308
SWIDTH 220 0
DWIDTH 11 0
BBX 11 46 0 0
BITMAP
1F80
3FC0
7FE0
F9E0
0000
0000
0000
0000
0000
0F80
0F80
0F80
0F80
0F80
0F80
0F80
0F80
0F80
0F80
0F80
0F80
0F80
0F80
0F80
0F80
0F80
0F80
0F80
0F80
0F80
0F80
0F80
0F80
0F80
0F80
0F80
0F80
0F80
0F80
0F80
3F80
7F80
7F00
7F00
7E00
7800
ENDCHAR
STARTCHAR 0135
ENCODING 309
SWIDTH 180 0
DWIDTH 9 0
BBX 11 46 -1 -9
BITMAP
1F00
3F80
7FC0
FFE0
1F00
0000
0000
0000
0000
1F00
1F00
1F00
1F00
1F00
1F00
1F00
1F00
1F00
1F00
1F00
1F00
1F00
1F00
1F00
1F00
1F00
1F00
1F00
1F00
1F00
1F00
1F00
1F00
1F00
1F00
1F00
1F00
1F00
1F00
1F00
1F00
BE00
FE00
FE00
FC00
F800
ENDCHAR
STARTCHAR 0136
ENCODING 310
SWIDTH 380 0
DWIDTH 19 0
BBX 16 46 2 -9
BITMAP
F83F
F83E
F83E
F87C
F87C
F8FC
F8F8
F9F8
F9F0
F9F0
FBF0
FBE0
FFE0
FFE0
FFE0
FFF0
FFF0
FFF0
FFF0
FFF8
FFF8
FDF8
FCF8
F8F8
F8FC
F8FC
F87C
F87C
F87E
F87E
F83E
F83E
F83E
F83F
F81F
F81F
F81F
0000
0000
0F80
0F80
0F80
0380
0780
0700
0700
ENDCHAR
STARTCHAR 0137
ENCODING 311
SWIDTH 320 0
DWIDTH 16 0
BBX 14 46 2 -9
BITMAP
F800
F800
F800
F800
F800
F800
F800
F800
F800
F8F8
F8F0
F9F0
F9E0
FBE0
FBE0
FBC0
FFC0
FF80
FF80
FFC0
FFC0
FFC0
FFC0
FFE0
FFE0
FFE0
FBE0
FBE0
F9F0
F9F0
F9F0
F8F0
F8F8
F8F8
F8F8
F878
F87C
0000
0000
0F80
0F80
0F80
0380
0780
0700
0700
ENDCHAR
STARTCHAR 0138
ENCODING 312
SWIDTH 300 0
DWIDTH 15 0
BBX 13 37 2 0
BITMAP
F800
F800
F800
F800
F800
F800
F800
F800
F800
F9F0
F9F0
F9E0
FBE0
FBC0
FBC0
FFC0
FF80
FF80
FF80
FF80
FF80
FF80
FFC0
FFC0
FFC0
FBC0
FBE0
FBE0
FBE0
F9E0
F9F0
F9F0
F9F0
F8F0
F8F8
F8F8
F8F8
ENDCHAR
STARTCHAR 0139
ENCODING 313
SWIDTH 300 0
DWIDTH 15 0
BBX 13 46 2 0
BITMAP
0F80
1F00
3E00
3C00
0000
0000
0000
0000
0000
F800
F800
F800
F800
F800
F800
F800
F800
F800
F800
F800
F800
F800
F800
F800
F800
F800
F800
F800
F800
F800
F800
F800
F800
F800
F800
F800
F800
F800
F800
F800
F800
F800
FFF8
FFF8
FFF8
FFF8
ENDCHAR
STARTCHAR 013A
ENCODING 314
SWIDTH 180 0
DWIDTH 9 0
BBX 7 42 1 0
BITMAP
3E
7C
78
F0
00
7C
7C
7C
7C
7C
7C
7C
7C
7C
7C
7C
7C
7C
7C
7C
7C
7C
7C
7C
7C
7C
7C
7C
7C
7C
7C
7C
7C
7C
7C
7C
7C
7C
7C
7C
7C
7C
ENDCHAR
STARTCHAR 013B
ENCODING 315
SWIDTH 300 0
DWIDTH 15 0
BBX 13 46 2 -9
BITMAP
F800
F800
F800
F800
F800
F800
F800
F800
F800
F800
F800
F800
F800
F800
F800
F800
F800
F800
F800
F800
F800
F800
F800
F800
F800
F800
F800
F800
F800
F800
F800
F800
F800
FFF8
FFF8
FFF8
FFF8
0000
0000
0F80
0F80
0F80
0380
0780
0700
0700
ENDCHAR
STARTCHAR 013C
ENCODING 316
SWIDTH 180 0
DWIDTH 9 0
BBX 5 46 2 -9
BITMAP
F8
F8
F8
F8
F8
F8
F8
F8
F8
F8
F8
F8
F8
F8
F8
F8
F8
F8
F8
F8
F8
F8
F8
F8
F8
F8
F8
F8
F8
F8
F8
F8
F8
F8
F8
F8
F8
00
00
F8
F8
F8
38
38
70
70
ENDCHAR
STARTCHAR 013D
ENCODING 317
SWIDTH 300 0
DWIDTH 15 0
BBX 12 43 2 0
BITMAP
01F0
01F0
01F0
01F0
01F0
01F0
F870
F860
F8E0
F8E0
F8C0
F8C0
F9C0
F800
F800
F800
F800
F800
F800
F800
F800
F800
F800
F800
F800
F800
F800
F800
F800
F800
F800
F800
F800
F800
F800
F800
F800
F800
F800
FFF0
FFF0
FFF0
FFF0
ENDCHAR
STARTCHAR 013E
ENCODING 318
SWIDTH 320 0
DWIDTH 16 0
BBX 13 37 2 0
BITMAP
F8F8
F8F8
F8F8
F8F8
F8F8
F8F8
F838
F830
F870
F870
F860
F860
F800
F800
F800
F800
F800
F800
F800
F800
F800
F800
F800
F800
F800
F800
F800
F800
F800
F800
F800
F800
F800
F800
F800
F800
F800
ENDCHAR
STARTCHAR 013F
ENCODING 319
SWIDTH 280 0
DWIDTH 14 0
BBX 12 37 2 0
BITMAP
F800
F800
F800
F800
F800
F800
F800
F800
F800
F800
F800
F800
F800
F800
F800
F9F0
F9F0
F9F0
F9F0
F9F0
F9F0
F800
F800
F800
F800
F800
F800
F800
F800
F800
F800
F800
F800
FFF0
FFF0
FFF0
FFF0
ENDCHAR
STARTCHAR 0140
ENCODING 320
SWIDTH 280 0
DWIDTH 14 0
BBX 12 37 2 0
BITMAP
F800
F800
F800
F800
F800
F800
F800
F800
F800
F800
F800
F800
F800
F800
F800
F9F0
F9F0
F9F0
F9F0
F9F0
F9F0
F800
F800
F800
F800
F800
F800
F800
F800
F800
F800
F800
F800
F800
F800
F800
F800
ENDCHAR
STARTCHAR 0141
ENCODING 321
SWIDTH 300 0
DWIDTH 15 0
BBX 15 37 0 0
BITMAP
3E00
3E00
3E00
3E00
3E00
3E00
3E00
3E00
3E00
3E00
3E20
3EE0
3FE0
3FE0
3FE0
3FE0
3F80
7F00
FE00
FE00
FE00
FE00
FE00
BE00
3E00
3E00
3E00
3E00
3E00
3E00
3E00
3E00
3E00
3FFE
3FFE
3FFE
3FFE
ENDCHAR
STARTCHAR 0142
ENCODING 322
SWIDTH 220 0
DWIDTH 11 0
BBX 11 37 0 0
BITMAP
1F00
1F00
1F00
1F00
1F00
1F00
1F00
1F00
1F00
1F00
1F20
1FE0
1FE0
1FE0
1FE0
1FC0
3F80
7F00
FF00
FF00
FF00
FF00
9F00
1F00
1F00
1F00
1F00
1F00
1F00
1F00
1F00
1F00
1F00
1F00
1F00
1F00
1F00
ENDCHAR
STARTCHAR 0143
ENCODING 323
SWIDTH 400 0
DWIDTH 20 0
BBX 16 46 2 0
BITMAP
03F0
07E0
07C0
0F80
0000
0000
0000
0000
0000
F81F
F81F
F81F
F81F
FC1F
FC1F
FC1F
FE1F
FE1F
FE1F
FF1F
FF1F
FF1F
FF9F
FF9F
FF9F
FFDF
FFDF
FFDF
FBFF
FBFF
FBFF
F9FF
F9FF
F9FF
F8FF
F8FF
F8FF
F87F
F87F
F87F
F83F
F83F
F83F
F83F
F81F
F81F
ENDCHAR
STARTCHAR 0144
ENCODING 324
SWIDTH 340 0
DWIDTH 17 0
BBX 13 37 2 0
BITMAP
0FC0
0F80
1F00
1E00
0000
0000
0000
0000
0000
F9C0
FBF0
FFF0
FFF0
FFF8
F8F8
F8F8
F8F8
F8F8
F8F8
F8F8
F8F8
F8F8
F8F8
F8F8
F8F8
F8F8
F8F8
F8F8
F8F8
F8F8
F8F8
F8F8
F8F8
F8F8
F8F8
F8F8
F8F8
ENDCHAR
STARTCHAR 0145
ENCODING 325
SWIDTH 400 0
DWIDTH 20 0
BBX 16 46 2 -9
BITMAP
F81F
F81F
F81F
FC1F
FC1F
FC1F
FE1F
FE1F
FE1F
FE1F
FF1F
FF1F
FF1F
FF9F
FF9F
FF9F
FFDF
FFDF
FFDF
FBFF
FBFF
FBFF
F9FF
F9FF
F9FF
F8FF
F8FF
F8FF
F87F
F87F
F87F
F83F
F83F
F83F
F83F
F81F
F81F
0000
0000
0F80
0F80
0F80
0380
0780
0700
0700
ENDCHAR
STARTCHAR 0146
ENCODING 326
SWIDTH 340 0
DWIDTH 17 0
BBX 13 37 2 -9
BITMAP
F9C0
FBF0
FFF0
FFF0
FFF8
F8F8
F8F8
F8F8
F8F8
F8F8
F8F8
F8F8
F8F8
F8F8
F8F8
F8F8
F8F8
F8F8
F8F8
F8F8
F8F8
F8F8
F8F8
F8F8
F8F8
F8F8
F8F8
F8F8
0000
0000
0F80
0F80
0F80
0380
0780
0700
0700
ENDCHAR
STARTCHAR 0147
ENCODING 327
SWIDTH 400 0
DWIDTH 20 0
BBX 16 46 2 0
BITMAP
3E7C
1FF8
1FF0
0FF0
0000
0000
0000
0000
0000
F81F
F81F
F81F
F81F
FC1F
FC1F
FC1F
FE1F
FE1F
FE1F
FF1F
FF1F
FF1F
FF9F
FF9F
FF9F
FFDF
FFDF
FFDF
FBFF
FBFF
FBFF
F9FF
F9FF
F9FF
F8FF
F8FF
F8FF
F87F
F87F
F87F
F83F
F83F
F83F
F83F
F81F
F81F
ENDCHAR
STARTCHAR 0148
ENCODING 328
SWIDTH 340 0
DWIDTH 17 0
BBX 13 37 2 0
BITMAP
78F0
7FE0
3FE0
1FC0
0000
0000
0000
0000
0000
F9C0
FBF0
FFF0
FFF0
FFF8
F8F8
F8F8
F8F8
F8F8
F8F8
F8F8
F8F8
F8F8
F8F8
F8F8
F8F8
F8F8
F8F8
F8F8
F8F8
F8F8
F8F8
F8F8
F8F8
F8F8
F8F8
F8F8
F8F8
ENDCHAR
STARTCHAR 0149
ENCODING 329
SWIDTH 360 0
DWIDTH 18 0
BBX 15 35 1 0
BITMAP
F800
F800
F800
7000
7000
7000
0000
3E70
3EFC
3FFC
3FFC
3FFE
3E3E
3E3E
3E3E
3E3E
3E3E
3E3E
3E3E
3E3E
3E3E
3E3E
3E3E
3E3E
3E3E
3E3E
3E3E
3E3E
3E3E
3E3E
3E3E
3E3E
3E3E
3E3E
3E3E
ENDCHAR
STARTCHAR 014A
ENCODING 330
SWIDTH 400 0
DWIDTH 20 0
BBX 16 43 2 -6
BITMAP
F81F
F81F
F81F
F81F
FC1F
FC1F
FC1F
FE1F
FE1F
FE1F
FF1F
FF1F
FF1F
FF9F
FF9F
FF9F
FFDF
FFDF
FFDF
FBFF
FBFF
FBFF
F9FF
F9FF
F9FF
F8FF
F8FF
F8FF
F8FF
F87F
F87F
F87F
F83F
F83F
F83F
F81F
F81F
001F
007E
007E
007E
007C
0078
ENDCHAR
STARTCHAR 014B
ENCODING 331
SWIDTH 340 0
DWIDTH 17 0
BBX 13 34 2 -7
BITMAP
F9C0
FBF0
FFF0
FFF0
FFF8
F8F8
F8F8
F8F8
F8F8
F8F8
F8F8
F8F8
F8F8
F8F8
F8F8
F8F8
F8F8
F8F8
F8F8
F8F8
F8F8
F8F8
F8F8
F8F8
F8F8
F8F8
F8F8
F8F8
00F8
00F8
07F0
07F0
07E0
07C0
ENDCHAR
STARTCHAR 014C
ENCODING 332
SWIDTH 360 0
DWIDTH 18 0
BBX 14 46 2 0
BITMAP
3FF0
3FF0
3FF0
3FF0
0000
0000
0000
0000
0000
0FC0
1FE0
3FF0
7FF8
7FF8
FCFC
F87C
F87C
F87C
F87C
F87C
F87C
F87C
F87C
F87C
F87C
F87C
F87C
F87C
F87C
F87C
F87C
F87C
F87C
F87C
F87C
F87C
F87C
F87C
F87C
F87C
FCFC
7FF8
7FF8
3FF0
3FE0
0FC0
ENDCHAR
STARTCHAR 014D
ENCODING 333
SWIDTH 320 0
DWIDTH 16 0
BBX 13 37 2 0
BITMAP
7FE0
7FE0
7FE0
7FE0
0000
0000
0000
0000
0000
0F80
3FC0
7FE0
7FF0
FFF0
F8F8
F8F8
F8F8
F8F8
F8F8
F8F8
F8F8
F8F8
F8F8
F8F8
F8F8
F8F8
F8F8
F8F8
F8F8
F8F8
F8F8
F8F8
FFF0
7FF0
7FE0
3FE0
0F80
ENDCHAR
STARTCHAR 014E
ENCODING 334
SWIDTH 360 0
DWIDTH 18 0
BBX 14 47 2 0
BITMAP
1860
3FF0
3FF0
1FE0
0FC0
0000
0000
0000
0000
0000
0FC0
1FE0
3FF0
7FF8
7FF8
FCFC
F87C
F87C
F87C
F87C
F87C
F87C
F87C
F87C
F87C
F87C
F87C
F87C
F87C
F87C
F87C
F87C
F87C
F87C
F87C
F87C
F87C
F87C
F87C
F87C
F87C
FCFC
7FF8
7FF8
3FF0
3FE0
0FC0
ENDCHAR
STARTCHAR 014F
ENCODING 335
SWIDTH 320 0
DWIDTH 16 0
BBX 13 37 2 0
BITMAP
10C0
3FE0
7FF0
3FE0
0F80
0000
0000
0000
0000
0F80
3FC0
7FE0
7FF0
FFF0
F8F8
F8F8
F8F8
F8F8
F8F8
F8F8
F8F8
F8F8
F8F8
F8F8
F8F8
F8F8
F8F8
F8F8
F8F8
F8F8
F8F8
F8F8
FFF0
7FF0
7FE0
3FE0
0F80
ENDCHAR
STARTCHAR 0150
ENCODING 336
SWIDTH 360 0
DWIDTH 18 0
BBX 14 46 2 0
BITMAP
3E7C
7CF8
F8F0
F1E0
0000
0000
0000
0000
0000
0FC0
1FE0
3FF0
7FF8
7FF8
FCFC
F87C
F87C
F87C
F87C
F87C
F87C
F87C
F87C
F87C
F87C
F87C
F87C
F87C
F87C
F87C
F87C
F87C
F87C
F87C
F87C
F87C
F87C
F87C
F87C
F87C
FCFC
7FF8
7FF8
3FF0
3FE0
0FC0
ENDCHAR
STARTCHAR 0151
ENCODING 337
SWIDTH 320 0
DWIDTH 16 0
BBX 15 37 1 0
BITMAP
3E7E
3C7C
78F8
F8F0
0000
0000
0000
0000
0000
07C0
1FE0
3FF0
3FF8
7FF8
7C7C
7C7C
7C7C
7C7C
7C7C
7C7C
7C7C
7C7C
7C7C
7C7C
7C7C
7C7C
7C7C
7C7C
7C7C
7C7C
7C7C
7C7C
7FF8
3FF8
3FF0
1FF0
07C0
ENDCHAR
STARTCHAR 0152
ENCODING 338
SWIDTH 500 0
DWIDTH 25 0
BBX 22 37 2 0
BITMAP
0FFFFC
3FFFFC
3FFFFC
7FFFFC
7FFFFC
FCFFFC
F87C00
F87C00
F87C00
F87C00
F87C00
F87C00
F87C00
F87C00
F87C00
F87FF0
F87FF0
F87FF0
F87FF0
F87FF0
F87FF0
F87C00
F87C00
F87C00
F87C00
F87C00
F87C00
F87C00
F87C00
F87C00
F87C00
FCFFFC
7FFFFC
7FFFFC
3FFFFC
1FFFFC
0FFFFC
ENDCHAR
STARTCHAR 0153
ENCODING 339
SWIDTH 500 0
DWIDTH 25 0
BBX 21 28 2 0
BITMAP
0F8F80
3FFFE0
7FFFF0
7FFFF0
FDFFF8
F8F8F8
F8F8F8
F8F8F8
F8F8F8
F8F8F8
F8F8F8
F8FFF8
F8FFF8
F8FFF8
F8FFF8
F8F800
F8F800
F8F800
F8F8F8
F8F8F8
F8F8F8
F8F8F8
F8F8F8
FDFFF8
7FFFF0
7FFFF0
3FFFE0
0F8F80
ENDCHAR
STARTCHAR 0154
ENCODING 340
SWIDTH 360 0
DWIDTH 18 0
BBX 15 46 2 0
BITMAP
07E0
07C0
0F80
1F00
0000
0000
0000
0000
0000
FF80
FFE0
FFF8
FFF8
FFFC
F8FC
F87E
F83E
F83E
F83E
F83E
F83E
F83E
F83E
F87E
F87C
FBFC
FFFC
FFF8
FFF0
FFF8
F9F8
F9F8
F8F8
F8F8
F8F8
F8FC
F8FC
F87C
F87C
F87C
F87C
F83E
F83E
F83E
F83E
F83E
ENDCHAR
STARTCHAR 0155
ENCODING 341
SWIDTH 260 0
DWIDTH 13 0
BBX 10 37 2 0
BITMAP
3E00
3E00
7C00
7800
0000
0000
0000
0000
0000
F9C0
FBC0
FFC0
FFC0
FFC0
FC00
F800
F800
F800
F800
F800
F800
F800
F800
F800
F800
F800
F800
F800
F800
F800
F800
F800
F800
F800
F800
F800
F800
ENDCHAR
STARTCHAR 0156
ENCODING 342
SWIDTH 360 0
DWIDTH 18 0
BBX 15 46 2 -9
BITMAP
FF80
FFF0
FFF8
FFF8
FFFC
F8FC
F87E
F83E
F83E
F83E
F83E
F83E
F83E
F83E
F87E
F8FC
FFFC
FFF8
FFF0
FFF0
F9F8
F9F8
F9F8
F9F8
F8F8
F8FC
F8FC
F8FC
F87C
F87C
F87C
F87E
F83E
F83E
F83E
F83E
F83E
0000
0000
0F80
0F80
0F80
0380
0780
0700
0700
ENDCHAR
STARTCHAR 0157
ENCODING 343
SWIDTH 260 0
DWIDTH 13 0
BBX 10 37 2 -9
BITMAP
F8C0
FBC0
FFC0
FFC0
FFC0
FE00
FC00
F800
F800
F800
F800
F800
F800
F800
F800
F800
F800
F800
F800
F800
F800
F800
F800
F800
F800
F800
F800
F800
0000
0000
F800
F800
F800
3800
3800
7000
7000
ENDCHAR
STARTCHAR 0158
ENCODING 344
SWIDTH 360 0
DWIDTH 18 0
BBX 15 46 2 0
BITMAP
7C78
3FF8
1FF0
1FE0
0000
0000
0000
0000
0000
FF80
FFE0
FFF8
FFF8
FFFC
F8FC
F87E
F83E
F83E
F83E
F83E
F83E
F83E
F83E
F87E
F87C
FBFC
FFFC
FFF8
FFF0
FFF8
F9F8
F9F8
F8F8
F8F8
F8F8
F8FC
F8FC
F87C
F87C
F87C
F87C
F83E
F83E
F83E
F83E
F83E
ENDCHAR
STARTCHAR 0159
ENCODING 345
SWIDTH 260 0
DWIDTH 13 0
BBX 12 37 0 0
BITMAP
F9F0
7FE0
3FC0
1F80
0000
0000
0000
0000
0000
3E70
3EF0
3FF0
3FF0
3FF0
3F00
3E00
3E00
3E00
3E00
3E00
3E00
3E00
3E00
3E00
3E00
3E00
3E00
3E00
3E00
3E00
3E00
3E00
3E00
3E00
3E00
3E00
3E00
ENDCHAR
STARTCHAR 015A
ENCODING 346
SWIDTH 340 0
DWIDTH 17 0
BBX 15 46 1 0
BITMAP
03E0
07C0
0780
0F00
0000
0000
0000
0000
0000
07E0
0FF0
1FF8
3FFC
3FFC
7C7E
7C3E
7C3E
7C3E
7C38
7E00
7E00
3F00
3F00
1F80
1FC0
0FC0
0FE0
07E0
07F0
03F8
01F8
01FC
00FC
007C
007E
383E
F83E
F83E
F83E
F83E
FC7E
7EFC
7FFC
3FF8
1FF0
0FE0
ENDCHAR
STARTCHAR 015B
ENCODING 347
SWIDTH 320 0
DWIDTH 16 0
BBX 14 37 1 0
BITMAP
07E0
07C0
0F80
0F00
1000
0000
0000
0000
0000
07C0
1FF0
3FF8
3FF8
7FF8
7C7C
7C7C
7C7C
7C00
7C00
3E00
3F00
1F80
0FC0
07E0
03F0
01F0
00F8
00F8
007C
F87C
F87C
F878
7FF8
7FF8
3FF0
1FE0
0FC0
ENDCHAR
STARTCHAR 015C
ENCODING 348
SWIDTH 340 0
DWIDTH 17 0
BBX 15 46 1 0
BITMAP
0FE0
1FF0
1EF0
3E78
0000
0000
0000
0000
0000
07E0
0FF0
1FF8
3FFC
3FFC
7C7E
7C3E
7C3E
7C3E
7C38
7E00
7E00
3F00
3F00
1F80
1FC0
0FC0
0FE0
07E0
07F0
03F8
01F8
01FC
00FC
007C
007E
383E
F83E
F83E
F83E
F83E
FC7E
7EFC
7FFC
3FF8
1FF0
0FE0
ENDCHAR
STARTCHAR 015D
ENCODING 349
SWIDTH 320 0
DWIDTH 16 0
BBX 14 37 1 0
BITMAP
0FC0
1FE0
3FF0
3CF8
4000
0000
0000
0000
0000
07C0
1FF0
3FF8
3FF8
7FF8
7C7C
7C7C
7C7C
7C00
7C00
3E00
3F00
1F80
0FC0
07E0
03F0
01F0
00F8
00F8
007C
F87C
F87C
F878
7FF8
7FF8
3FF0
1FE0
0FC0
ENDCHAR
STARTCHAR 015E
ENCODING 350
SWIDTH 340 0
DWIDTH 17 0
BBX 15 46 1 -9
BITMAP
07E0
0FF0
1FF8
3FFC
3FFC
7C7E
7C3E
7C3E
7C3E
7C38
7E00
7E00
3F00
3F00
1F80
1FC0
0FC0
0FE0
07E0
07F0
03F8
01F8
01FC
00FC
007C
007E
383E
F83E
F83E
F83E
F83E
FC7E
7EFC
7FFC
3FF8
1FF0
0FE0
0000
0000
07C0
07C0
07C0
01C0
01C0
0180
0380
ENDCHAR
STARTCHAR 015F
ENCODING 351
SWIDTH 320 0
DWIDTH 16 0
BBX 14 37 1 -9
BITMAP
07C0
1FF0
3FF8
3FF8
7FF8
7C7C
7C7C
7C7C
7C00
7C00
3E00
3F00
1F80
0FC0
07E0
03F0
01F0
00F8
00F8
007C
F87C
F87C
F878
7FF8
7FF8
3FF0
1FE0
0FC0
0000
0000
0780
0780
0780
0380
0380
0300
0700
ENDCHAR
STARTCHAR 0160
ENCODING 352
SWIDTH 340 0
DWIDTH 17 0
BBX 15 45 1 0
BITMAP
3EF8
1FF0
0FE0
0FE0
0000
0000
0000
0000
07E0
0FF0
1FF8
3FFC
3FFC
7C7E
7C3E
7C3E
7C3E
7C38
7E00
7E00
3F00
3F00
1F80
1FC0
0FC0
0FE0
07E0
07F0
03F8
01F8
01FC
00FC
007C
007E
383E
F83E
F83E
F83E
F83E
FC7E
7EFC
7FFC
3FF8
1FF0
0FE0
ENDCHAR
STARTCHAR 0161
ENCODING 353
SWIDTH 320 0
DWIDTH 16 0
BBX 14 37 1 0
BITMAP
7CF8
3FF0
1FE0
1FE0
0000
0000
0000
0000
0000
07C0
1FF0
3FF8
3FF8
7FF8
7C7C
7C7C
7C7C
7C00
7C00
3E00
3F00
1F80
0FC0
07E0
03F0
01F0
00F8
00F8
007C
F87C
F87C
F878
7FF8
7FF8
3FF0
1FE0
0FC0
ENDCHAR
STARTCHAR 0164
ENCODING 356
SWIDTH 360 0
DWIDTH 18 0
BBX 16 46 1 0
BITMAP
3E7C
1EF8
0FF0
0FE0
0000
0000
0000
0000
0000
FFFF
FFFF
FFFF
FFFF
FFFF
FFFF
07C0
07C0
07C0
07C0
07C0
07C0
07C0
07C0
07C0
07C0
07C0
07C0
07C0
07C0
07C0
07C0
07C0
07C0
07C0
07C0
07C0
07C0
07C0
07C0
07C0
07C0
07C0
07C0
07C0
07C0
07C0
ENDCHAR
STARTCHAR 0165
ENCODING 357
SWIDTH 400 0
DWIDTH 20 0
BBX 18 37 1 0
BITMAP
0007C0
0007C0
0007C0
1F07C0
1F07C0
1F07C0
1F0380
1F0380
1F0380
FFE300
FFE700
FFE600
FFE000
1F0000
1F0000
1F0000
1F0000
1F0000
1F0000
1F0000
1F0000
1F0000
1F0000
1F0000
1F0000
1F0000
1F0000
1F0000
1F0000
1F0000
1F0000
1F0000
1FE000
0FE000
0FE000
07E000
03E000
ENDCHAR
STARTCHAR 0166
ENCODING 358
SWIDTH 360 0
DWIDTH 18 0
BBX 16 37 1 0
BITMAP
FFFF
FFFF
FFFF
FFFF
FFFF
FFFF
07C0
07C0
07C0
1FF8
1FF8
1FF8
1FF8
07C0
07C0
07C0
07C0
07C0
07C0
07C0
07C0
07C0
07C0
07C0
07C0
07C0
07C0
07C0
07C0
07C0
07C0
07C0
07C0
07C0
07C0
07C0
07C0
ENDCHAR
STARTCHAR 0167
ENCODING 359
SWIDTH 260 0
DWIDTH 13 0
BBX 11 37 1 0
BITMAP
7FE0
7FE0
7FE0
7FE0
1F00
1F00
1F00
1F00
1F00
FFE0
FFE0
FFE0
FFE0
1F00
1F00
1F00
1F00
1F00
1F00
1F00
1F00
1F00
1F00
1F00
1F00
1F00
1F00
1F00
1F00
1F00
1F00
1F00
1FE0
0FE0
0FE0
07E0
03E0
ENDCHAR
STARTCHAR 0168
ENCODING 360
SWIDTH 360 0
DWIDTH 18 0
BBX 14 47 2 0
BITMAP
1E00
3FF0
3FF0
3FF0
37F0
0000
0000
0000
0000
0000
F87C
F87C
F87C
F87C
F87C
F87C
F87C
F87C
F87C
F87C
F87C
F87C
F87C
F87C
F87C
F87C
F87C
F87C
F87C
F87C
F87C
F87C
F87C
F87C
F87C
F87C
F87C
F87C
F87C
F87C
F87C
FCFC
7FF8
7FF8
3FF0
1FE0
0FC0
ENDCHAR
STARTCHAR 0169
ENCODING 361
SWIDTH 340 0
DWIDTH 17 0
BBX 13 37 2 0
BITMAP
3FB0
3FF0
3FF0
3FF0
37F0
0000
0000
0000
0000
F8F8
F8F8
F8F8
F8F8
F8F8
F8F8
F8F8
F8F8
F8F8
F8F8
F8F8
F8F8
F8F8
F8F8
F8F8
F8F8
F8F8
F8F8
F8F8
F8F8
F8F8
F8F8
F8F8
FFF8
FFF8
7FF8
7EF8
3CF8
ENDCHAR
STARTCHAR 016A
ENCODING 362
SWIDTH 360 0
DWIDTH 18 0
BBX 14 46 2 0
BITMAP
3FF0
3FF0
3FF0
3FF0
0000
0000
0000
0000
0000
F87C
F87C
F87C
F87C
F87C
F87C
F87C
F87C
F87C
F87C
F87C
F87C
F87C
F87C
F87C
F87C
F87C
F87C
F87C
F87C
F87C
F87C
F87C
F87C
F87C
F87C
F87C
F87C
F87C
F87C
F87C
FCFC
7FF8
7FF8
3FF0
1FE0
0FC0
ENDCHAR
STARTCHAR 016B
ENCODING 363
SWIDTH 340 0
DWIDTH 17 0
BBX 13 37 2 0
BITMAP
3FF0
3FF0
3FF0
3FF0
0000
0000
0000
0000
0000
F8F8
F8F8
F8F8
F8F8
F8F8
F8F8
F8F8
F8F8
F8F8
F8F8
F8F8
F8F8
F8F8
F8F8
F8F8
F8F8
F8F8
F8F8
F8F8
F8F8
F8F8
F8F8
F8F8
FFF8
FFF8
7FF8
7EF8
3CF8
ENDCHAR
STARTCHAR 016C
ENCODING 364
SWIDTH 360 0
DWIDTH 18 0
BBX 14 47 2 0
BITMAP
1860
3FF0
3FF0
1FE0
0FC0
0000
0000
0000
0000
0000
F87C
F87C
F87C
F87C
F87C
F87C
F87C
F87C
F87C
F87C
F87C
F87C
F87C
F87C
F87C
F87C
F87C
F87C
F87C
F87C
F87C
F87C
F87C
F87C
F87C
F87C
F87C
F87C
F87C
F87C
F87C
FCFC
7FF8
7FF8
3FF0
1FE0
0FC0
ENDCHAR
STARTCHAR 016D
ENCODING 365
SWIDTH 340 0
DWIDTH 17 0
BBX 13 37 2 0
BITMAP
1040
3FE0
7FF0
3FE0
0F80
0000
0000
0000
0000
F8F8
F8F8
F8F8
F8F8
F8F8
F8F8
F8F8
F8F8
F8F8
F8F8
F8F8
F8F8
F8F8
F8F8
F8F8
F8F8
F8F8
F8F8
F8F8
F8F8
F8F8
F8F8
F8F8
FFF8
FFF8
7FF8
7EF8
3CF8
ENDCHAR
STARTCHAR 016E
ENCODING 366
SWIDTH 360 0
DWIDTH 18 0
BBX 14 49 2 0
BITMAP
0780
0FC0
1CE0
1860
1860
1CE0
0FC0
0780
0000
0000
0000
0000
F87C
F87C
F87C
F87C
F87C
F87C
F87C
F87C
F87C
F87C
F87C
F87C
F87C
F87C
F87C
F87C
F87C
F87C
F87C
F87C
F87C
F87C
F87C
F87C
F87C
F87C
F87C
F87C
F87C
F87C
F87C
FCFC
7FF8
7FF8
3FF0
3FE0
0FC0
ENDCHAR
STARTCHAR 016F
ENCODING 367
SWIDTH 340 0
DWIDTH 17 0
BBX 13 39 2 0
BITMAP
0700
0F80
18C0
18C0
18C0
0F80
0700
0000
0000
0000
0000
F8F8
F8F8
F8F8
F8F8
F8F8
F8F8
F8F8
F8F8
F8F8
F8F8
F8F8
F8F8
F8F8
F8F8
F8F8
F8F8
F8F8
F8F8
F8F8
F8F8
F8F8
F8F8
F8F8
FFF8
FFF8
7FF8
7EF8
3CF8
ENDCHAR
STARTCHAR 0170
ENCODING 368
SWIDTH 360 0
DWIDTH 18 0
BBX 14 46 2 0
BITMAP
3E7C
7CF8
F8F0
F1E0
0000
0000
0000
0000
0000
F87C
F87C
F87C
F87C
F87C
F87C
F87C
F87C
F87C
F87C
F87C
F87C
F87C
F87C
F87C
F87C
F87C
F87C
F87C
F87C
F87C
F87C
F87C
F87C
F87C
F87C
F87C
F87C
F87C
F87C
F87C
FCFC
7FF8
7FF8
3FF0
1FE0
0FC0
ENDCHAR
STARTCHAR 0171
ENCODING 369
SWIDTH 340 0
DWIDTH 17 0
BBX 14 37 1 0
BITMAP
3E3C
3C7C
78F8
F8F0
0000
0000
0000
0000
0000
7C7C
7C7C
7C7C
7C7C
7C7C
7C7C
7C7C
7C7C
7C7C
7C7C
7C7C
7C7C
7C7C
7C7C
7C7C
7C7C
7C7C
7C7C
7C7C
7C7C
7C7C
7C7C
7C7C
7FFC
7FFC
3FFC
3F7C
1E7C
ENDCHAR
STARTCHAR 0172
ENCODING 370
SWIDTH 360 0
DWIDTH 18 0
BBX 14 46 2 -9
BITMAP
F87C
F87C
F87C
F87C
F87C
F87C
F87C
F87C
F87C
F87C
F87C
F87C
F87C
F87C
F87C
F87C
F87C
F87C
F87C
F87C
F87C
F87C
F87C
F87C
F87C
F87C
F87C
F87C
F87C
F87C
F87C
FCFC
7FF8
7FF8
3FF0
1FF0
0FC0
0070
00E0
00C0
01C0
01C0
01E0
01FC
00FC
007C
ENDCHAR
STARTCHAR 0173
ENCODING 371
SWIDTH 340 0
DWIDTH 17 0
BBX 13 37 2 -9
BITMAP
F8F8
F8F8
F8F8
F8F8
F8F8
F8F8
F8F8
F8F8
F8F8
F8F8
F8F8
F8F8
F8F8
F8F8
F8F8
F8F8
F8F8
F8F8
F8F8
F8F8
F8F8
F8F8
F8F8
FFF8
FFF8
7FF8
7EF8
3CF8
00C0
0180
0300
0700
0700
0780
07F8
03F0
01F0
ENDCHAR
STARTCHAR 0174
ENCODING 372
SWIDTH 500 0
DWIDTH 25 0
BBX 24 46 1 0
BITMAP
007E00
00FE00
01FF00
03EF80
000000
000000
000000
000000
000000
F83C1F
F83C1F
F87C3E
F87C3E
F87C3E
F87C3E
F87C3E
787C3E
7C7E3E
7C7E3C
7CFE3C
7CFE7C
7CFE7C
7CFE7C
3CFE7C
3CFE7C
3CFF7C
3EFF78
3FEF78
3FEF78
3FEFF8
3FEFF8
1FEFF8
1FE7F8
1FE7F0
1FC7F0
1FC7F0
1FC7F0
1FC7F0
0FC7F0
0FC3F0
0FC3F0
0F83E0
0F83E0
0F83E0
0F83E0
0F83E0
ENDCHAR
STARTCHAR 0175
ENCODING 373
SWIDTH 440 0
DWIDTH 22 0
BBX 21 37 1 0
BITMAP
01F800
03FC00
07FE00
079F00
080000
000000
000000
000000
000000
F0F0F8
F0F0F0
F0F0F0
F0F0F0
F8F1F0
F8F1F0
F8F1F0
79F9F0
79F9E0
79F9E0
79F9E0
79F9E0
79F9E0
7DF9E0
3FFFE0
3FDFC0
3F9FC0
3F9FC0
3F9FC0
3F9FC0
3F9FC0
1F9F80
1F8F80
1F0F80
1F0F80
1F0F80
1F0F80
1F0F80
ENDCHAR
STARTCHAR 0176
ENCODING 374
SWIDTH 340 0
DWIDTH 17 0
BBX 15 46 1 0
BITMAP
07C0
0FE0
1FF0
3EF8
0000
0000
0000
0000
0000
F83E
F83E
F83E
FC7E
7C7C
7C7C
7C7C
7C7C
3EF8
3EF8
3EF8
3EF8
1FF0
1FF0
1FF0
0FF0
0FE0
0FE0
0FE0
07C0
07C0
07C0
07C0
07C0
07C0
07C0
07C0
07C0
07C0
07C0
07C0
07C0
07C0
07C0
07C0
07C0
07C0
ENDCHAR
STARTCHAR 0177
ENCODING 375
SWIDTH 320 0
DWIDTH 16 0
BBX 14 46 1 -9
BITMAP
0FC0
1FE0
3FF0
3CF0
4008
0000
0000
0000
0000
F87C
F87C
F87C
F87C
7878
7878
7CF8
7CF8
7CF8
7CF8
3CF0
3CF0
3CF0
3CF0
3FF0
3FF0
1FE0
1FE0
1FE0
1FE0
1FE0
1FE0
0FC0
0FC0
0FC0
0FC0
0FC0
0FC0
0F80
0F80
0F80
1F80
7F00
FF00
FE00
FC00
F800
ENDCHAR
STARTCHAR 0178
ENCODING 376
SWIDTH 340 0
DWIDTH 17 0
BBX 16 45 1 0
BITMAP
3E7C
3E7C
3E7C
3E7C
0000
0000
0000
0000
F83F
F83F
F83E
7C3E
7C7E
7C7C
7C7C
3E7C
3E7C
3EF8
3EF8
1FF8
1FF0
1FF0
1FF0
0FF0
0FE0
0FE0
0FE0
07E0
07C0
07C0
07C0
07C0
07C0
07C0
07C0
07C0
07C0
07C0
07C0
07C0
07C0
07C0
07C0
07C0
07C0
ENDCHAR
STARTCHAR 0179
ENCODING 377
SWIDTH 320 0
DWIDTH 16 0
BBX 14 46 1 0
BITMAP
07C0
07C0
0F80
0F00
0000
0000
0000
0000
0000
7FFC
7FFC
7FFC
7FFC
7FFC
00FC
00FC
01F8
01F8
01F8
03F0
03F0
03F0
03E0
07E0
07E0
07C0
0FC0
0FC0
0F80
1F80
1F80
1F00
3F00
3F00
3F00
3E00
7E00
7E00
7C00
FC00
FC00
FFFC
FFFC
FFFC
FFFC
FFFC
ENDCHAR
STARTCHAR 017A
ENCODING 378
SWIDTH 280 0
DWIDTH 14 0
BBX 12 37 1 0
BITMAP
0FC0
0F80
1F00
1E00
0000
0000
0000
0000
0000
7FF0
7FF0
7FF0
7FF0
01F0
03E0
03E0
03E0
07C0
07C0
07C0
0F80
0F80
0F80
1F00
1F00
1F00
3E00
3E00
3E00
7C00
7C00
7C00
F800
FFF0
FFF0
FFF0
FFF0
ENDCHAR
STARTCHAR 017B
ENCODING 379
SWIDTH 320 0
DWIDTH 16 0
BBX 14 47 1 0
BITMAP
07C0
07C0
07C0
07C0
07C0
0000
0000
0000
0000
0000
7FFC
7FFC
7FFC
7FFC
7FFC
00FC
00FC
00F8
01F8
01F8
01F0
03F0
03F0
03E0
07E0
07E0
07E0
0FC0
0FC0
0FC0
0F80
1F80
1F80
1F00
3F00
3F00
3F00
7E00
7E00
7E00
FC00
FC00
FFFC
FFFC
FFFC
FFFC
FFFC
ENDCHAR
STARTCHAR 017C
ENCODING 380
SWIDTH 280 0
DWIDTH 14 0
BBX 12 37 1 0
BITMAP
0F80
0F80
0F80
0F80
0F80
0000
0000
0000
0000
7FF0
7FF0
7FF0
7FF0
01F0
01E0
03E0
03E0
07C0
07C0
07C0
0F80
0F80
0F80
1F00
1F00
1F00
3E00
3E00
3E00
7C00
7C00
7C00
F800
FFF0
FFF0
FFF0
FFF0
ENDCHAR
STARTCHAR 017D
ENCODING 381
SWIDTH 320 0
DWIDTH 16 0
BBX 14 45 1 0
BITMAP
3C78
1EF0
1FF0
0FE0
0000
0000
0000
0000
7FFC
7FFC
7FFC
7FFC
7FFC
00FC
00FC
01F8
01F8
01F8
03F0
03F0
03F0
03E0
07E0
07E0
07C0
0FC0
0FC0
0F80
1F80
1F80
1F00
3F00
3F00
3F00
3E00
7E00
7E00
7C00
FC00
FC00
FFFC
FFFC
FFFC
FFFC
FFFC
ENDCHAR
STARTCHAR 017E
ENCODING 382
SWIDTH 280 0
DWIDTH 14 0
BBX 12 37 1 0
BITMAP
79F0
7FE0
3FC0
1FC0
0000
0000
0000
0000
0000
7FF0
7FF0
7FF0
7FF0
01F0
03E0
03E0
03E0
07C0
07C0
07C0
0F80
0F80
0F80
1F00
1F00
1F00
3E00
3E00
3E00
7C00
7C00
7C00
F800
FFF0
FFF0
FFF0
FFF0
ENDCHAR
STARTCHAR 017F
ENCODING 383
SWIDTH 240 0
DWIDTH 12 0
BBX 10 37 1 0
BITMAP
0FC0
3FC0
7FC0
7FC0
FE80
F800
F000
F000
F000
F000
F000
F000
F000
F000
F000
F000
F000
F000
F000
F000
F000
F000
F000
F000
F000
F000
F000
F000
F000
F000
F000
F000
F000
F000
F000
F000
F000
ENDCHAR
STARTCHAR 021A
ENCODING 538
SWIDTH 360 0
DWIDTH 18 0
BBX 16 46 1 -9
BITMAP
FFFF
FFFF
FFFF
FFFF
FFFF
FFFF
07C0
07C0
07C0
07C0
07C0
07C0
07C0
07C0
07C0
07C0
07C0
07C0
07C0
07C0
07C0
07C0
07C0
07C0
07C0
07C0
07C0
07C0
07C0
07C0
07C0
07C0
07C0
07C0
07C0
07C0
07C0
0000
0000
07C0
07C0
07C0
01C0
01C0
0380
0380
ENDCHAR
STARTCHAR 021B
ENCODING 539
SWIDTH 260 0
DWIDTH 13 0
BBX 11 44 1 -9
BITMAP
1F00
1F00
1F00
1F00
1F00
1F00
1F00
FFE0
FFE0
FFE0
FFE0
1F00
1F00
1F00
1F00
1F00
1F00
1F00
1F00
1F00
1F00
1F00
1F00
1F00
1F00
1F00
1F00
1F00
1F00
1F00
1FE0
0FE0
0FE0
07E0
03E0
0000
0000
03E0
03E0
03E0
00E0
01C0
01C0
01C0
ENDCHAR
STARTCHAR 02C6
ENCODING 710
SWIDTH 500 0
DWIDTH 25 0
BBX 11 4 7 32
BITMAP
3F80
7FC0
FBC0
F1E0
ENDCHAR
STARTCHAR 02C7
ENCODING 711
SWIDTH 500 0
DWIDTH 25 0
BBX 11 4 7 32
BITMAP
FBE0
7FC0
3F80
3F80
ENDCHAR
STARTCHAR 02D8
ENCODING 728
SWIDTH 500 0
DWIDTH 25 0
BBX 11 5 7 32
BITMAP
3080
7FC0
FFE0
7FC0
1F00
ENDCHAR
STARTCHAR 02D9
ENCODING 729
SWIDTH 500 0
DWIDTH 25 0
BBX 5 5 10 32
BITMAP
F8
F8
F8
F8
F8
ENDCHAR
STARTCHAR 02DA
ENCODING 730
SWIDTH 520 0
DWIDTH 26 0
BBX 8 7 9 31
BITMAP
3C
7E
C3
C3
C3
7E
3C
ENDCHAR
STARTCHAR 02DB
ENCODING 731
SWIDTH 480 0
DWIDTH 24 0
BBX 7 10 8 -9
BITMAP
18
30
70
60
E0
E0
F0
FE
7E
3E
ENDCHAR
STARTCHAR 02DC
ENCODING 732
SWIDTH 520 0
DWIDTH 26 0
BBX 10 5 8 32
BITMAP
FEC0
FFC0
FFC0
FFC0
DFC0
ENDCHAR
STARTCHAR 02DD
ENCODING 733
SWIDTH 500 0
DWIDTH 25 0
BBX 14 4 6 32
BITMAP
7E7C
78F8
F8F0
F1E0
ENDCHAR
STARTCHAR 2013
ENCODING 8211
SWIDTH 400 0
DWIDTH 20 0
BBX 16 4 2 16
BITMAP
FFFF
FFFF
FFFF
FFFF
ENDCHAR
STARTCHAR 2014
ENCODING 8212
SWIDTH 480 0
DWIDTH 24 0
BBX 20 4 2 16
BITMAP
FFFFF0
FFFFF0
FFFFF0
FFFFF0
ENDCHAR
STARTCHAR 2018
ENCODING 8216
SWIDTH 140 0
DWIDTH 7 0
BBX 5 12 1 25
BITMAP
38
30
70
70
70
E0
F8
F8
F8
F8
F8
F8
ENDCHAR
STARTCHAR 2019
ENCODING 8217
SWIDTH 140 0
DWIDTH 7 0
BBX 5 13 1 24
BITMAP
F8
F8
F8
F8
F8
F8
70
70
70
60
E0
E0
C0
ENDCHAR
STARTCHAR 201A
ENCODING 8218
SWIDTH 140 0
DWIDTH 7 0
BBX 5 13 1 -7
BITMAP
F8
F8
F8
F8
F8
F8
70
70
70
60
E0
E0
C0
ENDCHAR
STARTCHAR 201C
ENCODING 8220
SWIDTH 300 0
DWIDTH 15 0
BBX 13 12 1 25
BITMAP
3818
3038
7030
7070
7070
E070
F8F8
F8F8
F8F8
F8F8
F8F8
F8F8
ENDCHAR
STARTCHAR 201D
ENCODING 8221
SWIDTH 300 0
DWIDTH 15 0
BBX 13 13 1 24
BITMAP
F8F8
F8F8
F8F8
F8F8
F8F8
F8F8
7038
7030
7070
6070
E060
E060
C0E0
ENDCHAR
STARTCHAR 201E
ENCODING 8222
SWIDTH 300 0
DWIDTH 15 0
BBX 13 13 1 -7
BITMAP
F8F8
F8F8
F8F8
F8F8
F8F8
F8F8
7038
7030
7070
6070
E060
E060
C0E0
ENDCHAR
STARTCHAR 201F
ENCODING 8223
SWIDTH 300 0
DWIDTH 15 0
BBX 13 13 1 24
BITMAP
F8F8
F8F8
F8F8
F8F8
F8F8
F8F8
E070
6070
7070
7030
3038
3038
3818
ENDCHAR
STARTCHAR 2022
ENCODING 8226
SWIDTH 320 0
DWIDTH 16 0
BBX 12 12 2 14
BITMAP
0F80
3FC0
7FE0
7FF0
FFF0
FFF0
FFF0
FFF0
7FE0
7FE0
3FC0
0F00
ENDCHAR
STARTCHAR 2026
ENCODING 8230
SWIDTH 460 0
DWIDTH 23 0
BBX 21 6 1 0
BITMAP
F8F8F8
F8F8F8
F8F8F8
F8F8F8
F8F8F8
F8F8F8
ENDCHAR
STARTCHAR 20AC
ENCODING 8364
SWIDTH 380 0
DWIDTH 19 0
BBX 17 37 1 0
BITMAP
01F800
07FC00
07FE00
0FFF00
1FFF00
1F9F00
1F0F80
1F0F80
1F0F80
1F0000
1F0000
1F0000
1F0000
FFFC00
FFFC00
FFFC00
1F0000
1F0000
1F0000
1F0000
FFFC00
FFFC00
FFFC00
1F0000
1F0000
1F0000
1F0000
1F0F80
1F0F80
1F0F80
1F0F80
1F9F00
0FFF00
0FFF00
07FE00
03FC00
01F800
ENDCHAR
STARTCHAR 2122
ENCODING 8482
SWIDTH 460 0
DWIDTH 23 0
BBX 19 17 2 20
BITMAP
FFF1E0
FFF1E0
FFF1E0
38F9E0
38FBE0
38FBE0
38FBE0
38FBE0
38FFE0
38EEE0
38EEE0
38EEE0
38EEE0
38EEE0
38EEE0
38E4E0
38E4E0
ENDCHAR
STARTCHAR 2212
ENCODING 8722
SWIDTH 380 0
DWIDTH 19 0
BBX 15 4 2 16
BITMAP
FFFE
FFFE
FFFE
FFFE
ENDCHAR
STARTCHAR FB01
ENCODING 64257
SWIDTH 380 0
DWIDTH 19 0
BBX 17 37 0 0
BITMAP
03F800
07F800
0FF800
1FF800
1FD800
1F0000
1F0000
1F0000
1F0000
FFFF80
FFFF80
FFFF80
FFFF80
1F0F80
1F0F80
1F0F80
1F0F80
1F0F80
1F0F80
1F0F80
1F0F80
1F0F80
1F0F80
1F0F80
1F0F80
1F0F80
1F0F80
1F0F80
1F0F80
1F0F80
1F0F80
1F0F80
1F0F80
1F0F80
1F0F80
1F0F80
1F0F80
ENDCHAR
STARTCHAR FB02
ENCODING 64258
SWIDTH 380 0
DWIDTH 19 0
BBX 16 37 1 0
BITMAP
03FF
07FF
0FFF
1FFF
1FDF
1F1F
1F1F
1F1F
1F1F
FFDF
FFDF
FFDF
FFDF
1F1F
1F1F
1F1F
1F1F
1F1F
1F1F
1F1F
1F1F
1F1F
1F1F
1F1F
1F1F
1F1F
1F1F
1F1F
1F1F
1F1F
1F1F
1F1F
1F1F
1F1F
1F1F
1F1F
1F1F
ENDCHAR
ENDFONT
